<?xml version="1.0" standalone="no"?><!DOCTYPE svg PUBLIC "-//W3C//DTD SVG 1.1//EN" "http://www.w3.org/Graphics/SVG/1.1/DTD/svg11.dtd"><svg t="1523348528456" class="icon" style="" viewBox="0 0 1024 1024" version="1.1" xmlns="http://www.w3.org/2000/svg" p-id="1030" xmlns:xlink="http://www.w3.org/1999/xlink" width="200" height="200"><defs><style type="text/css"></style></defs><path d="M825.536 284.128c-78.336-61.504-179.072-86.72-274.752-110.944-76.288-19.136-104.8-23.168-154.656-53.44-36.64-23.168-118.048-63.52-125.152-54.432-8.16 8.064 17.28 35.296 27.456 68.576 15.264 47.36 3.072 85.696-35.616 114.944-89.536 67.552-206.56 185.536-198.4 348.896 11.2 222.848 216.736 377.12 468.064 360.96 252.352-16.128 422.304-177.44 427.392-400.32 3.04-107.872-44.8-201.664-134.336-274.24z m-297.12 308.544l38.656-40.32 41.728-42.368c4.064-3.008 3.04-5.024-2.048-6.048-3.04 0-27.456-5.024-51.872-10.08l-47.84-10.08c-1.024-55.456 15.264-90.752 42.752-94.784 35.616-4.032 72.224 42.336 85.44 127.04 11.2 71.616-13.216 133.12-46.784 136.128-23.392 3.04-44.8-20.16-60.032-59.488z m315.456 13.12c-21.376 5.024-38.688-22.208-50.88-62.528 13.216-12.096 24.416-23.2 35.616-32.256 19.328-16.16 35.616-32.288 38.656-35.296 3.04-3.04 2.048-5.056-2.048-6.08-3.04 0-23.392-3.008-44.768-7.04-12.192-3.008-26.464-5.024-41.728-8.064 0-48.384 13.248-93.76 41.728-98.816 31.552-6.08 59.04 53.44 67.168 120 8.128 80.64-16.288 123.008-43.744 130.08z" fill="#1296db" p-id="1031"></path></svg>