<?xml version="1.0" standalone="no"?><!DOCTYPE svg PUBLIC "-//W3C//DTD SVG 1.1//EN" "http://www.w3.org/Graphics/SVG/1.1/DTD/svg11.dtd"><svg t="1534726557367" class="icon" style="" viewBox="0 0 1024 1024" version="1.1" xmlns="http://www.w3.org/2000/svg" p-id="2912" xmlns:xlink="http://www.w3.org/1999/xlink" width="200" height="200"><defs><style type="text/css"></style></defs><path d="M853.333333 768 170.666667 768 170.666667 256 853.333333 256M853.333333 170.666667 170.666667 170.666667C123.306667 170.666667 85.333333 208.64 85.333333 256L85.333333 768C85.333333 814.933333 123.733333 853.333333 170.666667 853.333333L853.333333 853.333333C900.266667 853.333333 938.666667 814.933333 938.666667 768L938.666667 256C938.666667 208.64 900.266667 170.666667 853.333333 170.666667M469.333333 725.333333 554.666667 725.333333 554.666667 682.666667 597.333333 682.666667C620.8 682.666667 640 663.466667 640 640L640 512C640 488.533333 620.8 469.333333 597.333333 469.333333L469.333333 469.333333 469.333333 426.666667 640 426.666667 640 341.333333 554.666667 341.333333 554.666667 298.666667 469.333333 298.666667 469.333333 341.333333 426.666667 341.333333C403.2 341.333333 384 360.533333 384 384L384 512C384 535.466667 403.2 554.666667 426.666667 554.666667L554.666667 554.666667 554.666667 597.333333 384 597.333333 384 682.666667 469.333333 682.666667 469.333333 725.333333Z" p-id="2913" fill="#cdcdcd"></path></svg>