<?xml version="1.0" standalone="no"?><!DOCTYPE svg PUBLIC "-//W3C//DTD SVG 1.1//EN" "http://www.w3.org/Graphics/SVG/1.1/DTD/svg11.dtd"><svg t="1607500205529" class="icon" viewBox="0 0 1024 1024" version="1.1" xmlns="http://www.w3.org/2000/svg" p-id="70651" xmlns:xlink="http://www.w3.org/1999/xlink" width="200" height="200"><defs><style type="text/css"></style></defs><path d="M832 64H192c-70.7 0-128 57.3-128 128v640c0 70.7 57.3 128 128 128h640c70.7 0 128-57.3 128-128V192c0-70.7-57.3-128-128-128z m64 768.2c0 17-6.7 33.2-18.7 45.2s-28.3 18.7-45.2 18.7H192.2c-17.1 0-33.3-6.6-45.4-18.7-12.1-12.1-18.8-28.1-18.8-45.2V192.1c0.1-35.4 28.8-64.1 64.2-64.1h639.9c17 0 33.3 6.8 45.3 18.8s18.7 28.3 18.7 45.3v640.1zM344.1 528.1c-61.9 0-112 50.1-112 112s50.1 112 112 112 112-50.1 112-112c0-61.8-50.1-112-112-112z m34 146c-16.2 16.2-41.6 18.7-60.7 5.9-19.1-12.7-26.5-37.2-17.7-58.3 8.8-21.2 31.3-33.2 53.8-28.7 22.5 4.5 38.7 24.2 38.7 47.1 0 12.8-5.1 25-14.1 34z m39.4-376.6L312.1 402.9l-41.4-41.4c-8.1-8.1-19.9-11.2-30.9-8.3-11 3-19.7 11.6-22.6 22.6-3 11 0.2 22.8 8.3 30.9l64 64c6 6 14.1 9.4 22.6 9.4 8.5 0 16.6-3.4 22.6-9.4l128-128c12.3-12.5 12.3-32.6-0.2-45.1-12.4-12.4-32.5-12.5-45-0.1z m374.6 310.6h-256c-17.7 0-32 14.3-32 32s14.3 32 32 32h256c17.7 0 32-14.3 32-32s-14.3-32-32-32z m0-256.1h-256c-17.7 0-32 14.3-32 32s14.3 32 32 32h256c17.7 0 32-14.3 32-32s-14.3-32-32-32z" fill="#666666" p-id="70652"></path></svg>