<?xml version="1.0" standalone="no"?><!DOCTYPE svg PUBLIC "-//W3C//DTD SVG 1.1//EN" "http://www.w3.org/Graphics/SVG/1.1/DTD/svg11.dtd"><svg t="1537258405332" class="icon" style="" viewBox="0 0 1024 1024" version="1.1" xmlns="http://www.w3.org/2000/svg" p-id="2776" xmlns:xlink="http://www.w3.org/1999/xlink" width="200" height="200"><defs><style type="text/css"></style></defs><path d="M821.88 503.016c-25.08 0-47.288 12.496-60.744 31.584-2.096-39.08-34.536-70.232-74.136-70.232-26.304 0-49.464 13.744-62.648 34.448-0.216-1.376-0.544-2.712-0.84-4.064 48.112-51.816 77.648-121.048 77.648-197.176 0-160.232-130.352-290.576-290.584-290.576C250.352 7 120 137.344 120 297.576c0 136.648 94.888 251.288 222.192 282.12l0 147.736L294.744 680c-14.016-14.016-32.664-21.752-52.496-21.752-19.832 0-38.48 7.736-52.496 21.752C175.728 694.016 168 712.664 168 732.504s7.728 38.488 21.752 52.504l187.664 187.664c1.008 1.016 2.104 1.888 3.312 2.832 26.12 27.072 61.088 41.968 98.608 41.968l279.632 0c75.632 0 137.16-61.52 137.16-137.16L896.128 577.272C896.128 536.328 862.824 503.016 821.88 503.016zM153.104 297.576c0-141.968 115.504-257.472 257.48-257.472 141.984 0 257.48 115.504 257.48 257.472 0 62.88-22.84 120.36-60.48 165.032-13.624-16.024-33.888-26.232-56.52-26.232-0.848 0-1.672 0.128-2.512 0.16 35.832-35.512 58.176-84.616 58.176-138.96 0-108.152-87.992-196.144-196.144-196.144S214.432 189.424 214.432 297.576c0 84.104 53.24 155.88 127.76 183.68l0 64.256C233.336 515.504 153.104 415.84 153.104 297.576zM342.192 279.232l0 166.056c-55.784-25.904-94.656-82.256-94.656-147.712 0-89.896 73.144-163.04 163.04-163.04s163.04 73.144 163.04 163.04c0 60.8-33.496 113.808-82.952 141.8L490.664 279.232c0-40.944-33.304-74.248-74.232-74.248C375.496 204.984 342.192 238.288 342.192 279.232zM856.4 880.304c0 53.72-43.696 97.432-97.432 97.432L479.336 977.736c-26.944 0-52.048-10.832-70.688-30.512-0.4-0.448-0.832-0.856-1.272-1.24-0.76-0.68-1.56-1.296-1.984-1.504L217.84 756.92c-6.512-6.52-10.112-15.208-10.112-24.424 0-9.232 3.6-17.896 10.112-24.416 6.52-6.52 15.192-10.112 24.408-10.112s17.888 3.584 24.408 10.112l81.344 81.368c5.664 5.664 14.216 7.392 21.648 4.288 7.424-3.08 12.264-10.312 12.264-18.336L381.912 279.232c0-19.032 15.488-34.52 34.52-34.52 19.024 0 34.504 15.488 34.504 34.52l0 399.328c0 5.504 2.304 10.784 6.336 14.528 4.048 3.752 9.408 5.744 14.984 5.28 2.352-0.184 4.688-0.368 7.072-0.368l17.336 0c10.976 0 19.864-8.896 19.864-19.856l0-167.52c0-19.032 15.496-34.512 34.52-34.512s34.512 15.48 34.512 34.512l0 167.52c0 10.96 8.888 19.856 19.856 19.856l27.192 0c10.968 0 19.856-8.896 19.856-19.856l0-139.52c0-19.032 15.496-34.528 34.512-34.528 19.032 0 34.512 15.496 34.512 34.528l0 139.52c0 10.96 8.888 19.856 19.856 19.856l17.584 0c2.4 0 4.736 0.176 7.072 0.368 5.448 0.416 10.936-1.504 14.976-5.28 4.056-3.752 6.336-9.024 6.336-14.528l0-101.28c0-19.04 15.504-34.528 34.528-34.528s34.512 15.496 34.512 34.528L856.352 880.304z" p-id="2777" fill="#cdcdcd"></path></svg>