<?xml version="1.0" standalone="no"?><!DOCTYPE svg PUBLIC "-//W3C//DTD SVG 1.1//EN" "http://www.w3.org/Graphics/SVG/1.1/DTD/svg11.dtd"><svg t="1607500419986" class="icon" viewBox="0 0 1024 1024" version="1.1" xmlns="http://www.w3.org/2000/svg" p-id="73156" xmlns:xlink="http://www.w3.org/1999/xlink" width="200" height="200"><defs><style type="text/css"></style></defs><path d="M966.859 783.992H57.143c-31.56 0-57.143-25.584-57.143-57.14V85.733c0-31.558 25.583-57.141 57.143-57.141h909.715c31.557 0 57.143 25.583 57.143 57.14v641.118c0 31.558-25.586 57.141-57.143 57.141z m-12.573-674.261c0-6.313-5.115-11.428-11.429-11.428H76.574c-6.312 0-11.429 5.116-11.429 11.428v598.835c0 6.311 5.117 11.428 11.429 11.428h866.283c6.314 0 11.429-5.117 11.429-11.428V109.73zM728.002 301.724h121.143V653.71H728.003V301.724zM534.858 193.156h122.287V653.71H534.858V193.156zM344.002 411.434h121.142V653.71H344.002V411.434zM174.858 518.858h121.143v134.853H174.858V518.858z m176 310.845c0-6.312 5.116-11.427 11.43-11.427h297.14c6.314 0 11.431 5.115 11.431 11.427v97.14h195.428v68.569H153.143v-68.57h197.713v-97.14z" p-id="73157"></path></svg>