<?xml version="1.0" standalone="no"?><!DOCTYPE svg PUBLIC "-//W3C//DTD SVG 1.1//EN" "http://www.w3.org/Graphics/SVG/1.1/DTD/svg11.dtd"><svg t="1607499492212" class="icon" viewBox="0 0 1024 1024" version="1.1" xmlns="http://www.w3.org/2000/svg" p-id="63952" xmlns:xlink="http://www.w3.org/1999/xlink" width="200" height="200"><defs><style type="text/css"></style></defs><path d="M334.17216 853.57056h369.31072v84.24448H334.17216zM667.62752 628.53632H369.04448c-33.54624 0-60.83072-28.0064-60.83072-62.41792V126.41792c0-34.41664 27.2896-62.41792 60.83072-62.41792h298.58304c33.54624 0 60.83584 28.00128 60.83584 62.41792v439.69536c0 34.41664-27.2896 62.42304-60.83584 62.42304zM390.5024 546.24768h255.67744V146.28864H390.5024v399.95904z" p-id="63953"></path><path d="M834.25792 764.7744H203.392c-35.65056 0-64.65024-29.0048-64.65024-64.65536v-158.48448H221.0304v140.8512h595.60448v-129.09568h82.28352v146.72896c-0.00512 35.65056-29.00992 64.65536-64.66048 64.65536z" p-id="63954"></path><path d="M479.1552 747.76576h82.28864v113.6384H479.1552z" p-id="63955"></path></svg>