<?xml version="1.0" standalone="no"?><!DOCTYPE svg PUBLIC "-//W3C//DTD SVG 1.1//EN" "http://www.w3.org/Graphics/SVG/1.1/DTD/svg11.dtd"><svg t="1530150165101" class="icon" style="" viewBox="0 0 1024 1024" version="1.1" xmlns="http://www.w3.org/2000/svg" p-id="2021" xmlns:xlink="http://www.w3.org/1999/xlink" width="200" height="200"><defs><style type="text/css"></style></defs><path d="M600.20132 959.469288l-537.235754 0 0-896.41623 537.235754 0L600.20132 959.469288zM88.54822 933.886633l486.070444 0 0-845.25092-486.070444 0L88.54822 933.886633z" p-id="2022" fill="#1296db"></path><path d="M959.381795 959.469288l-384.763131 0 0-626.263393 384.763131 0L959.381795 959.469288zM600.20132 933.886633l333.597821 0 0-575.098083-333.597821 0L600.20132 933.886633z" p-id="2023" fill="#1296db"></path><path d="M434.425715 959.469288l-204.66124 0 0-269.12953 204.66124 0L434.425715 959.469288zM255.347131 933.886633l153.49593 0 0-217.96422-153.49593 0L255.347131 933.886633z" p-id="2024" fill="#1296db"></path><path d="M434.425715 574.706157l-204.66124 0 0-126.889969 204.66124 0L434.425715 574.706157zM255.347131 549.123502l153.49593 0 0-75.724659-153.49593 0L255.347131 549.123502z" p-id="2025" fill="#1296db"></path><path d="M434.425715 358.788549l-204.66124 0 0-141.216255 204.66124 0L434.425715 358.788549zM255.347131 333.205894l153.49593 0 0-90.050945-153.49593 0L255.347131 333.205894z" p-id="2026" fill="#1296db"></path><path d="M869.33085 612.568487l-179.078585 0 0-141.216255 179.078585 0L869.33085 612.568487zM715.83492 586.985832l127.913275 0 0-90.050945-127.913275 0L715.83492 586.985832z" p-id="2027" fill="#1296db"></path><path d="M869.33085 959.469288l-179.078585 0 0-230.243895 179.078585 0L869.33085 959.469288zM715.83492 933.886633l127.913275 0 0-179.078585-127.913275 0L715.83492 933.886633z" p-id="2028" fill="#1296db"></path></svg>