<?xml version="1.0" standalone="no"?><!DOCTYPE svg PUBLIC "-//W3C//DTD SVG 1.1//EN" "http://www.w3.org/Graphics/SVG/1.1/DTD/svg11.dtd"><svg t="1607485897408" class="icon" viewBox="0 0 1152 1024" version="1.1" xmlns="http://www.w3.org/2000/svg" p-id="59028" xmlns:xlink="http://www.w3.org/1999/xlink" width="225" height="200"><defs><style type="text/css"></style></defs><path d="M64 384v526.592c0 9.728 8.576 18.24 19.008 18.24h941.44a18.816 18.816 0 0 0 19.008-18.24V384H64zM0 320h1107.456v590.592c0 45.184-37.248 82.24-83.072 82.24H83.008A82.88 82.88 0 0 1 0 910.592V320zM1033.408 139.84h-125.44a80 80 0 0 0-7.552 0.32H521.728V73.472C521.728 32.896 488.448 0 447.488 0H74.24C33.152 0 0 33.024 0 73.472V286.08h1107.456V212.928a73.92 73.92 0 0 0-74.048-73.088z" p-id="59029"></path><path d="M735.936 664.32c5.12 7.04 11.712 12.032 19.968 15.04a38.4 38.4 0 0 1 4.928 3.328 18.56 18.56 0 0 1 6.208 9.472 35.968 35.968 0 0 1-0.448 11.968 72.064 72.064 0 0 1-11.136 27.2 25.408 25.408 0 0 1-9.024 8.32 19.904 19.904 0 0 1-8.64 2.432 24.32 24.32 0 0 1-8.256-1.664 86.016 86.016 0 0 0-10.24-2.24 47.936 47.936 0 0 0-12.608-0.448 60.992 60.992 0 0 0-12.8 2.688 24.96 24.96 0 0 0-10.88 7.04 40.64 40.64 0 0 0-11.52 23.488 46.4 46.4 0 0 0 3.712 25.152 15.68 15.68 0 0 1-1.28 16.512 30.72 30.72 0 0 1-7.808 6.784c-3.584 2.368-7.488 4.48-11.712 6.4a72.96 72.96 0 0 1-25.792 6.208 10.496 10.496 0 0 1-6.976-2.88 15.616 15.616 0 0 1-4.48-6.208h-0.448a51.008 51.008 0 0 0-15.488-22.08 38.976 38.976 0 0 0-50.688 0 50.048 50.048 0 0 0-15.808 21.696 14.08 14.08 0 0 1-6.144 7.168 18.432 18.432 0 0 1-9.088 2.304 47.68 47.68 0 0 1-12.992-2.048 121.152 121.152 0 0 1-14.4-5.12 68.736 68.736 0 0 1-12.992-7.296 35.84 35.84 0 0 1-8.64-8.192 12.608 12.608 0 0 1-2.24-6.848 25.024 25.024 0 0 1 3.072-10.88 41.28 41.28 0 0 0 3.52-21.696 37.504 37.504 0 0 0-10.496-22.464 26.752 26.752 0 0 0-14.016-8.064 56.96 56.96 0 0 0-15.68-1.408c-5.76 0.256-11.648 1.344-17.664 3.264a16.768 16.768 0 0 1-11.52-0.832 18.112 18.112 0 0 1-8.448-7.616 84.736 84.736 0 0 1-11.776-28.032 34.56 34.56 0 0 1-0.832-12.608c0.832-6.016 3.584-9.856 8.32-11.52a58.24 58.24 0 0 0 22.208-16.32 37.632 37.632 0 0 0 9.856-25.344 35.904 35.904 0 0 0-9.856-25.152 60.992 60.992 0 0 0-22.272-15.68c-2.496-0.832-4.48-2.816-6.144-6.016A20.8 20.8 0 0 1 384 582.464c0-3.584 0.576-7.552 1.664-11.968a82.56 82.56 0 0 1 4.288-12.8c1.792-4.096 3.84-7.872 6.208-11.328a25.088 25.088 0 0 1 7.616-7.68 9.472 9.472 0 0 1 6.4-1.6 36.672 36.672 0 0 1 6.784 1.664 49.792 49.792 0 0 0 25.728 3.072c8.96-1.28 16.832-5.12 23.68-11.776a29.312 29.312 0 0 0 7.232-12.16 66.816 66.816 0 0 0 2.88-27.008 162.816 162.816 0 0 0-1.024-8.256 44.544 44.544 0 0 1-1.472-5.76 8.96 8.96 0 0 1 0.64-5.76 23.616 23.616 0 0 1 8.832-10.112c4.224-2.88 8.832-5.312 13.824-7.232a89.6 89.6 0 0 1 14.4-4.288A58.24 58.24 0 0 1 522.816 448c3.52 0 6.4 1.152 8.384 3.52a20.928 20.928 0 0 1 4.352 7.232 49.344 49.344 0 0 0 14.848 19.584 37.12 37.12 0 0 0 24.32 8.448c9.6 0 18.048-2.688 25.472-8.064a43.008 43.008 0 0 0 15.68-20.416 27.008 27.008 0 0 1 5.12-6.784C623.36 449.152 625.728 448 628.224 448c3.84 0 8 0.576 12.544 1.664 4.48 1.088 8.96 2.56 13.44 4.48a52.48 52.48 0 0 1 12.16 7.488 39.68 39.68 0 0 1 8.768 9.856 9.472 9.472 0 0 1 1.28 7.232 25.28 25.28 0 0 1-1.664 5.568 43.84 43.84 0 0 0-3.328 25.152 41.024 41.024 0 0 0 11.968 23.104c6.592 6.592 14.72 10.24 24.32 10.88 9.6 0.768 18.56-0.832 26.752-4.672a12.608 12.608 0 0 1 8.064-1.664c3.136 0.256 5.76 1.536 8 3.712a48.64 48.64 0 0 1 10.88 17.536c3.2 7.808 5.312 15.744 6.4 23.68 0.576 4.736-0.192 8.32-2.24 10.944a15.36 15.36 0 0 1-6.4 5.12 48.32 48.32 0 0 0-21.76 15.936 40.192 40.192 0 0 0-9.088 25.792c0 9.344 2.56 17.536 7.616 24.512zM639.104 576.064a89.6 89.6 0 0 0-63.616-26.24 87.04 87.04 0 0 0-34.816 7.04 90.24 90.24 0 0 0-47.552 47.68c-4.672 10.88-7.04 22.464-7.04 34.816 0 12.416 2.368 24 7.04 34.88 4.672 10.88 11.072 20.416 19.2 28.672a88.512 88.512 0 0 0 98.176 19.392c11.008-4.672 20.544-11.136 28.608-19.392a92.8 92.8 0 0 0 19.2-28.672c4.672-10.88 7.04-22.464 7.04-34.88A90.24 90.24 0 0 0 639.104 576z" p-id="59030"></path></svg>