<?xml version="1.0" standalone="no"?><!DOCTYPE svg PUBLIC "-//W3C//DTD SVG 1.1//EN" "http://www.w3.org/Graphics/SVG/1.1/DTD/svg11.dtd"><svg t="1532336937864" class="icon" style="" viewBox="0 0 1024 1024" version="1.1" xmlns="http://www.w3.org/2000/svg" p-id="3647" xmlns:xlink="http://www.w3.org/1999/xlink" width="200" height="200"><defs><style type="text/css"></style></defs><path d="M199.927 890.215c-13.195 0-23.926-11.306-23.926-25.212v-68.277c0-136.591 77.965-257.742 198.625-308.628l13.666-5.761-11.596-9.603c-45.288-37.563-71.282-93.685-71.282-153.975-0.001-108.021 83.313-195.909 185.708-195.909 102.404 0 185.707 87.888 185.707 195.909 0 60.291-25.988 116.413-71.283 153.975l-11.586 9.603 13.655 5.761c120.678 50.886 198.648 172.037 198.637 308.633v68.271c0 13.906-10.735 25.216-23.933 25.216l-582.391-0.004zM491.158 491.87c-147.388 0-291.341 119.138-288.747 304.861v65.861h577.423v-65.861c-0.76-184.582-141.328-304.861-288.677-304.861v0zM491.121 147.049c-89.7 0-162.665 77.023-162.665 171.711 0 94.686 72.965 171.702 162.665 171.702 89.697 0 162.686-77.017 162.686-171.702 0.001-94.688-72.989-171.711-162.686-171.711v0zM70.51 787.788c-13.203 0-23.944-11.298-23.944-25.195v-52.821c0-99.191 51.579-189.001 134.603-234.355l9.769-5.346-7.405-8.641c-25.724-29.928-39.889-68.459-39.889-108.501 0-85.525 65.122-157.389 145.76-161.595-8.053 12.63-11.531 23.871-13.968 35.292-69.184 9.398-105.171 65.194-105.171 128.429 0 62.096 18.467 82.76 52.302 101.209 9.867 8.424 10.144 12.855 10.862 18.013-0.356 6.455-3.733 11.646-7.871 13.675l-10.458 3.387c-90.002 23.973-141.848 119.907-141.848 217.84l-0.065 48.205 51.662-0.617c-2.696 16.601-2.696 16.601-4.678 31.022h-49.661zM861.727 787.788c-1.062-11.010-1.999-19.422-4.67-27.603h51.867v-50.412c-2.911-102.56-50.816-199.057-145.222-221.058l-6.081-1.909c-5.013-2.65-5.523-7.559-5.772-12.637 0-10.121 4.753-11.113 14.717-15.083 34.535-37.468 45.295-62.599 45.295-106.156-10.972-89.827-43.515-109.954-101.948-127.2-5.947-19.935-4.956-16.631-17.495-34.41 80.672 4.155 145.845 76.033 145.845 161.609 0 40.060-14.172 78.593-39.891 108.501l-7.41 8.629 9.788 5.358c83 45.354 134.574 135.151 134.574 234.355v52.821c0 13.883-10.725 25.189-23.926 25.189l-49.672 0.006zM861.727 787.788z" p-id="3648" fill="#cdcdcd"></path></svg>