<?xml version="1.0" standalone="no"?><!DOCTYPE svg PUBLIC "-//W3C//DTD SVG 1.1//EN" "http://www.w3.org/Graphics/SVG/1.1/DTD/svg11.dtd"><svg t="1607486152842" class="icon" viewBox="0 0 1320 1024" version="1.1" xmlns="http://www.w3.org/2000/svg" p-id="60822" xmlns:xlink="http://www.w3.org/1999/xlink" width="257.8125" height="200"><defs><style type="text/css"></style></defs><path d="M589.464826 920.908477H128.228705c-45.311944 0-77.592515-23.195843-85.969826-61.69424a158.684884 158.684884 0 0 1-2.494577-33.285849c0-107.341277 0-214.682554-0.521255-322.02383a59.311361 59.311361 0 0 0-9.86661-30.381714c-18.616246-28.259462-29.339204-58.529479-29.301972-92.485513v-323.922687C0.074465 15.637647 15.674879 0.111697 57.710364 0.111697h921.466964c44.269434 0 59.571988 12.510118 60.204941 56.44446 1.414835 111.697478 0.521255 223.394957 1.34037 335.092435a39.652605 39.652605 0 0 0 10.090006 25.318095c47.620358 47.918218 96.171529 94.942857 145.802441 143.605725-6.962476 7.446499-11.169748 12.54735-15.823809 17.164179-56.109367 56.183832-112.591058 112.069803-168.067473 168.886587a49.928773 49.928773 0 0 0-11.914397 28.892415c-1.824392 21.557613 0 43.413087-0.781883 65.082397-1.303137 46.056594-32.317804 77.927607-78.523327 80.087092-22.897983 1.079742-45.907664 0-68.842879 0.59572-6.403989 0-14.892997 0.968045-18.616247 5.063619-44.678991 49.072426-106.187069 64.002655-165.79629 82.693367a364.87843 364.87843 0 0 1-59.571989 14.297277c-27.47758 3.723249-38.423933-8.191148-33.956033-35.705961 3.276459-21.483148 9.196426-42.370577 14.744067-66.720627zM121.452392 541.472143v205.97015c0 60.540033 31.238061 91.666397 91.703629 91.666397 125.920291 0 251.840581-0.29786 377.72364 0.372325 17.834364 0 29.785994-2.717972 37.232493-21.334218 5.063619-12.659048 15.823809-23.6054 25.727652-33.509244q112.367663-114.005893 225.740604-226.969276a103.729725 103.729725 0 0 1 16.568459-11.169748l-4.058341-4.951921c-24.089423 0-48.178846-0.819115-72.231036 0-54.21051 2.196717-101.71917-12.323955-139.770778-54.322207-37.93991 40.955742-85.039014 56.965714-139.398453 54.247742a357.841488 357.841488 0 0 0-37.232493 0c-55.476414 2.978599-104.25098-11.50484-143.2334-54.284975-38.423933 42.258879-86.528313 56.556157-141.483473 54.396672-31.312526-1.116975-62.88568-0.111697-97.288503-0.111697z m-37.232493-458.853241a21.110823 21.110823 0 0 0-1.898857 5.063619c0 87.459126-2.196717 174.992716 0.632952 262.302911 2.308415 71.486386 73.161848 121.936414 143.08447 106.447697 55.290252-12.24949 93.081232-59.571988 93.379092-118.734419 0.558487-80.645579 0-161.253926 0-242.011203a115.75582 115.75582 0 0 0-1.563765-13.180303z m874.181698 0.409557h-237.022049c-0.335092 4.765759-0.819115 8.414543-0.819115 12.026095 0 81.278532-0.59572 162.557064 0 243.835596 0.632952 67.651439 53.354162 120.447114 118.622722 120.670509 65.975977 0.223395 118.324862-53.354162 118.957815-122.085344 0.29786-35.370868 0-70.741736 0-106.112605 0.223395-48.923496 0.223395-97.884224 0.223395-148.297019z m-555.434327 0a70.332179 70.332179 0 0 0-1.563765 10.052773c0 83.698644-0.89358 167.546218 0.74465 251.058699a126.069221 126.069221 0 0 0 15.414252 54.545602 115.867518 115.867518 0 0 0 131.244537 57.263574 118.101467 118.101467 0 0 0 89.76754-113.931428c0.781882-81.911484 0.260627-163.822968 0.223395-245.473825 0-4.207272-0.856347-8.377311-1.377602-13.478163z" p-id="60823"></path><path d="M1099.475513 337.773175c15.898274-14.111115 31.796549-29.785994 49.333053-43.375854 19.919384-15.451485 43.338622-17.238644 67.279114-11.393143 47.955451 11.691003 100.527731 72.752291 104.25098 119.665232a71.188526 71.188526 0 0 1-21.557613 58.752873c-12.956907 13.217535-24.089423 28.184997-34.663451 40.732348z" p-id="60824"></path></svg>