<?xml version="1.0" standalone="no"?><!DOCTYPE svg PUBLIC "-//W3C//DTD SVG 1.1//EN" "http://www.w3.org/Graphics/SVG/1.1/DTD/svg11.dtd"><svg t="1607486068675" class="icon" viewBox="0 0 1024 1024" version="1.1" xmlns="http://www.w3.org/2000/svg" p-id="60681" xmlns:xlink="http://www.w3.org/1999/xlink" width="200" height="200"><defs><style type="text/css"></style></defs><path d="M517.041446 1019.676449c-0.019211 0-0.0091 0-0.028311 0l-4.174916-0.014156c-272.741625-1.537914-358.255106-148.077564-361.762683-154.317188l-4.889778-8.693613 2.68958-9.600588c0.959553-3.408487 23.865474-84.25767 62.927075-148.134187 62.936175-103.158542 145.900622-148.797482 149.408198-150.687266l7.62587-4.123349c-32.131382-36.743102-55.704642-86.819849-65.916958-145.148348-4.579364-25.868503-4.861467-52.549947-0.827096-79.255657l2.370066-15.741122c-99.947224-20.343741-131.392056-71.939191-132.924914-74.557992l-18.195111-31.063639 35.657159-4.946401c0.356925-0.056623 45.003956-6.94943 77.501364-39.846231 3.460054-3.498476 7.052564-7.18401 10.804832-11.030312 48.93418-50.175836 122.891567-125.99874 231.57386-125.99874 26.122294 0 52.959451 4.565208 79.777396 13.564179 150.894545 50.805764 166.108873 193.711448 153.075532 262.17744l-2.171887 11.406449-10.278038 5.402416c-0.639028 0.338725-2.886749 1.481291-6.431737 2.900904l1.918095 19.172864c2.313443 23.066689 1.279067 46.038332-3.074817 68.286013-12.364991 66.20816-35.704682 112.382993-64.252654 144.260585l8.491389 5.237603c3.206263 1.988874 79.259702 49.301217 126.285898 106.783409 86.472023 105.298073 90.130257 193.707403 83.359795 208.023856l-6.516671 13.785615-2.755303 0.019211C839.066088 913.729237 740.209863 1019.676449 517.041446 1019.676449zM198.365635 849.688919c20.743134 28.228458 104.629723 120.643847 314.745587 121.82888l3.901913 0.014156c211.545588 0 296.908413-103.346611 313.00646-125.914817-0.912031-16.168826-8.895837-78.851209-75.028163-159.389978-27.918044-34.115201-69.10502-65.352753-93.684345-82.527643L512.979776 861.235913l-148.533579-257.855911c-26.065671 18.576303-73.241514 57.830017-111.559941 120.634747C225.089545 769.469663 205.624468 826.608074 198.365635 849.688919zM482.898945 654.359678l30.034319 50.48625 29.901862-50.49535-29.892762-30.400344L482.898945 654.359678zM559.648035 602.778385l29.404391 29.901862 33.579307-58.300188C602.347648 588.301164 580.85224 597.267779 559.648035 602.778385zM404.879888 577.11615l31.915003 55.40434 27.043425-27.367994C442.925313 599.769291 423.084099 590.224315 404.879888 577.11615zM347.538242 350.075143c-0.489382 13.686525 0.45096 27.25576 2.801814 40.541882 17.668317 100.967445 80.78346 171.463767 153.499191 171.468822l0.0091 0c0.855408 0 1.701716-0.0091 2.558134-0.023256l6.610705-6.690583 5.782597 5.876631c84.741996-8.293209 135.698418-64.270854 155.614455-170.857094 1.983818-10.159737 3.094028-20.456987 3.347819-30.83816-13.823026-0.691606-27.025225-4.25985-39.315393-10.644064-33.616718-17.16579-63.94224-42.728935-81.686391-59.188963-30.410456 23.306324-96.824885 64.605535-182.375777 61.882588C365.235881 351.344099 356.265222 350.831461 347.538242 350.075143zM558.754205 183.025928l16.784598 17.71584c0.395348 0.423659 40.424592 42.638945 85.024099 65.6207 6.751251 3.445898 14.245675 5.214348 22.20117 5.214348 4.974712 0 9.543965-0.686551 13.333644-1.56117 3.385231-39.061601 1.767438-152.36067-122.778322-194.29992-21.853344-7.329611-43.53682-11.053568-64.440722-11.053568-88.39113 0-151.223159 64.426566-197.101734 111.470963-3.846302 3.940336-7.531835 7.715859-11.048512 11.275003-19.737069 19.977716-42.296175 32.742099-61.440728 40.786573 23.799751 15.384196 66.20816 33.183959 136.667071 35.506502 2.012129 0.060667 4.089982 0.088979 6.140534 0.088979 92.039252 0 158.472892-63.180866 159.131132-63.819894L558.754205 183.025928zM755.64057 794.562637 611.977558 794.562637l0-89.152503 143.663013 0L755.64057 794.562637z" p-id="60682"></path></svg>