<?xml version="1.0" standalone="no"?><!DOCTYPE svg PUBLIC "-//W3C//DTD SVG 1.1//EN" "http://www.w3.org/Graphics/SVG/1.1/DTD/svg11.dtd"><svg t="1607499804601" class="icon" viewBox="0 0 1024 1024" version="1.1" xmlns="http://www.w3.org/2000/svg" p-id="66835" xmlns:xlink="http://www.w3.org/1999/xlink" width="200" height="200"><defs><style type="text/css"></style></defs><path d="M878.355387 961.740004H282.01142c-80.19446 0-119.614262-29.526477-138.560776-54.295603-21.647019-28.29851-22.2477-56.936757-22.24463-60.11003V178.12691c0-0.667196 0.024559-1.331321 0.073678-1.988284-0.205685-3.40454-0.157589-6.062066-0.074701-7.749498 0.066515-7.897877 2.165316-34.632775 25.835412-59.422367 28.080545-29.408797 74.699306-44.322461 138.558729-44.322462h508.430708c14.863523 0 26.912953 12.04943 26.912953 26.912953 0 14.862499-12.048407 26.912953-26.912953 26.912953H285.599132c-59.778478 0-86.85823 14.72026-99.047854 27.069519-10.174734 10.307763-11.368932 20.566408-11.509125 22.730701 0.180102 1.672082 0.158612 1.37737-0.089027 3.118014-0.028653 2.263553 0.328481 15.735379 12.281721 28.259624 16.811898 17.612123 49.585325 26.922163 94.777597 26.922162h596.342943c14.863523 0 26.913976 12.04943 26.913976 26.913977v681.343873c-0.001023 14.862499-12.050454 26.91193-26.913976 26.911929z m-703.322443-114.681925c0.283456 6.832615 5.754051 60.85602 106.978476 60.856019h569.431014V280.396131H282.01142c-44.314275 0-80.122829-7.693216-106.978476-22.931268v589.593216z" p-id="66836"></path><path d="M458.146976 692.747597c2.248204 7.647167 6.746658 18.890232 8.993839 24.737404-74.210166 53.970192-85.453231 62.96403-91.749634 71.509661-3.598968-6.29538-12.143575-16.639982-17.090237-20.686135 8.094352-6.748704 23.835871-22.491247 23.835871-44.527123V561.869804h-69.261456v-28.783556h97.596805v192.944383l47.674812-33.283034z m-49.024553-197.891046c-13.492292-18.439978-43.624567-48.123021-67.911716-68.811202l19.338441-18.890232c23.836895 20.23895 54.420447 48.121997 68.812225 67.01223l-20.23895 20.689204z m294.589388 267.153526c0 19.788695-4.498454 29.234835-17.990746 34.180474-13.492292 5.39794-36.878932 5.848195-73.758887 5.848195-1.350764-8.546653-5.846148-22.036899-10.343579-30.134321 28.783557 0.901533 55.31891 0.450255 62.963007 0.450255 7.648191-0.450255 10.346649-2.698458 10.346649-10.794858V443.136609H456.345957v-27.885094H703.710788v346.758562z m-63.416331-245.563812H468.041324v-26.086121h172.254156v26.086121zM513.464863 705.790658v31.033807h-26.983561V563.668777h131.329071v142.121881H513.464863z m0-116.03576v89.948615h76.908624v-89.948615h-76.908624z" p-id="66837"></path></svg>