<?xml version="1.0" standalone="no"?><!DOCTYPE svg PUBLIC "-//W3C//DTD SVG 1.1//EN" "http://www.w3.org/Graphics/SVG/1.1/DTD/svg11.dtd"><svg t="1607500314170" class="icon" viewBox="0 0 1608 1024" version="1.1" xmlns="http://www.w3.org/2000/svg" p-id="71741" xmlns:xlink="http://www.w3.org/1999/xlink" width="314.0625" height="200"><defs><style type="text/css"></style></defs><path d="M368.952785 648.338038c49.949917-10.860971 99.729051-9.590153 149.319824 3.802407 49.590772 13.391304 93.938794 38.91063 133.032763 76.562999 18.822417 18.822417 34.750334 40.00062 47.785006 63.529583 13.034672 23.523941 22.983969 47.962066 29.861704 73.296797 6.877736 25.337242 10.496804 51.044929 10.860971 77.113017 0.365423 26.059297-1.994129 51.037395-7.053541 74.926759-49.239163 10.862226-98.829935 7.967726-148.786131-8.684758-49.95494-16.651228-94.114599-44.165938-132.485257-82.53534-39.098992-37.646091-65.341629-81.272057-78.735444-130.861573C359.355098 745.897156 358.089303 696.846355 368.952785 648.338038L368.952785 648.338038 368.952785 648.338038zM1236.64752 648.338038c10.860971 48.509573 9.597687 97.559118-3.796128 147.14989-13.397583 49.589517-39.282331 93.214227-77.651733 130.861573-18.823673 18.822417-40.899736 34.575785-66.243256 47.237499-25.337242 12.673016-52.126129 22.806908-80.36415 30.407955-28.231743 7.602303-57.375159 12.675528-87.418947 15.21214-30.043788 2.521543-59.546348 3.071561-88.508937 1.628706l-62.988355 0L769.676013 612.49897c-41.98847-4.343635-81.082439-15.927917-117.279395-34.752846-28.238021-14.480038-54.12277-32.579145-77.652989-54.297319-23.523941-21.723197-43.618432-45.971705-60.263381-72.763103-16.658762-26.782609-29.687155-55.745197-39.106526-86.876463-9.409325-31.133778-14.109593-63.706644-14.109593-97.734922 0-45.620095 9.050181-89.779754 27.143008-132.491535 34.757869 8.684758 66.795786 21.900258 96.109984 39.641475 29.326755 17.733683 55.568136 39.268518 78.740467 64.613294 6.514824-49.231628 22.618546-94.297938 48.321211-135.203953 25.707688-40.899736 58.09847-75.116377 97.198718-102.623552 40.540591 27.507176 73.669754 62.263788 99.363628 104.253514 25.707688 41.98847 41.447242 87.966453 47.243778 137.921393 23.166052-25.342265 49.597051-47.242522 79.275416-65.708307 29.678365-18.456995 61.900877-32.031638 96.651211-40.722675 16.652484 41.270181 24.978098 84.70653 24.978098 130.320346 0 33.303712-4.524463 65.518689-13.580922 96.651211-9.050181 31.133778-22.076062 60.09511-39.08769 86.878975-17.016651 26.783864-37.111142 51.044929-60.26966 72.763103-23.172331 21.723197-48.872484 39.816024-77.110506 54.297319l0 1.0812c-20.271551 10.140171-41.088098 18.288724-62.440849 24.43687-21.352751 6.15568-43.618432 9.956832-66.790763 11.409733l0 292.1198c8.691037-29.673342 22.082341-58.099726 40.182703-85.242734 18.100362-27.15431 39.100248-52.309468 62.988355-75.473009 18.823673-18.823673 40.366042-35.482436 64.613294-49.956195 24.254786-14.481294 49.414968-26.066832 75.481799-34.757869 26.059297-8.684758 52.485273-14.115871 79.275416-16.287061C1186.332181 641.824469 1212.032334 643.272348 1236.64752 648.338038L1236.64752 648.338038 1236.64752 648.338038zM1236.64752 648.338038" p-id="71742"></path></svg>