<?xml version="1.0" standalone="no"?><!DOCTYPE svg PUBLIC "-//W3C//DTD SVG 1.1//EN" "http://www.w3.org/Graphics/SVG/1.1/DTD/svg11.dtd"><svg t="1537258849867" class="icon" style="" viewBox="0 0 1106 1024" version="1.1" xmlns="http://www.w3.org/2000/svg" p-id="3572" xmlns:xlink="http://www.w3.org/1999/xlink" width="216.015625" height="200"><defs><style type="text/css"></style></defs><path d="M1021.90559 597.351018c-18.785258 105.789983-64.871277 197.966655-141.648874 274.774833-44.37532 44.340105-95.559149 80.199922-153.588555 107.503463-47.795792 20.492251-95.593437 35.856111-146.778193 40.952067-11.942461 1.712553-22.206657 1.712553-34.149118 3.419546H484.292825c-27.303541-1.707919-52.895455-5.129318-78.48737-11.940608-168.947781-37.567737-307.210472-157.007174-366.947797-319.150152-15.362006-42.66462-25.591914-87.03994-30.72494-131.417113-3.385257-11.939681-3.385257-23.880288-5.096883-35.82275v-32.435638c1.711626-37.567737 5.096883-73.387706 15.362006-109.246597C66.161198 215.039361 171.98547 98.983327 334.129375 34.147265c46.086019-18.784332 95.559149-29.01424 146.778193-32.434712 8.520135 0 18.750044 0 27.304467-1.7107h15.362006c13.652234 0 25.592841 0 39.244148 1.7107 37.531595 3.420472 73.390486 10.228055 107.499757 22.206657 151.914924 51.183829 259.41468 150.167156 320.862705 298.656048 20.495958 49.472203 32.436565 100.692173 35.857038 153.587629 0 8.554424 1.714406 15.362006 1.714406 23.880288v32.434712c-0.000927 22.208511-3.425106 44.37532-6.846505 64.873131zM516.731244 129.709193c-204.773311 0-383.989922 165.562524-383.989922 382.312585-1.708846 216.710212 175.795212 383.987142 382.277369 383.987142 206.518298 1.707919 382.311657-165.530089 384.020503-382.315365 0-218.421838-177.502205-383.984362-382.30795-383.984362z m-1.712553 638.300306c-35.821823 0-64.835136-29.01146-64.835136-64.868498 0-35.822749 29.013313-63.127217 64.835136-64.835136 35.856111 0 64.871277 29.012387 64.871277 64.835136 0.000927 37.56959-30.724013 66.58105-64.871277 64.868498z m11.938754-192.864212c-37.530669 6.844651-75.062264-22.171442-75.062264-61.451732V317.442233c0-34.145411 27.30076-61.451732 63.12351-61.451732 35.856111-1.710699 61.448952 25.630836 64.871277 54.64415V512.020851c0.000927 32.399497-22.205731 58.0257-52.932523 63.124436z" p-id="3573" fill="#cdcdcd"></path></svg>