<?xml version="1.0" standalone="no"?><!DOCTYPE svg PUBLIC "-//W3C//DTD SVG 1.1//EN" "http://www.w3.org/Graphics/SVG/1.1/DTD/svg11.dtd"><svg t="1523350560661" class="icon" style="" viewBox="0 0 1024 1024" version="1.1" xmlns="http://www.w3.org/2000/svg" p-id="1792" xmlns:xlink="http://www.w3.org/1999/xlink" width="200" height="200"><defs><style type="text/css"></style></defs><path d="M958.464 393.216c4.096 0 12.288-4.096 16.384-4.096 4.096-4.096 4.096-8.192 4.096-16.384L978.944 233.472c0-69.632-20.48-90.112-90.112-90.112L135.168 143.36C69.632 143.36 45.056 163.84 45.056 233.472l0 139.264c0 4.096 4.096 12.288 8.192 16.384 4.096 4.096 8.192 4.096 16.384 4.096 40.96 0 69.632 8.192 90.112 24.576 20.48 20.48 28.672 49.152 28.672 94.208 0 77.824-40.96 118.784-118.784 118.784-12.288 0-20.48 8.192-20.48 20.48l0 139.264c0 69.632 20.48 90.112 90.112 90.112l753.664 0c69.632 0 90.112-20.48 90.112-90.112l0-139.264c0-4.096-4.096-12.288-8.192-16.384-4.096-4.096-12.288-4.096-16.384-4.096-36.864 0-65.536-8.192-86.016-28.672-20.48-20.48-32.768-53.248-32.768-90.112 0-36.864 12.288-65.536 32.768-86.016C897.024 397.312 933.888 393.216 958.464 393.216zM798.72 512c0 49.152 16.384 90.112 45.056 118.784 24.576 24.576 57.344 36.864 94.208 40.96l0 118.784c0 45.056-4.096 49.152-49.152 49.152L135.168 839.68c-45.056 0-49.152-4.096-49.152-49.152l0-118.784c90.112-8.192 139.264-65.536 139.264-159.744 0-57.344-12.288-98.304-40.96-122.88C163.84 364.544 131.072 352.256 86.016 352.256L86.016 233.472c0-45.056 4.096-49.152 49.152-49.152l753.664 0c45.056 0 49.152 4.096 49.152 49.152l0 118.784c-36.864 4.096-73.728 16.384-94.208 40.96C815.104 421.888 798.72 462.848 798.72 512z" p-id="1793" fill="#1296db"></path><path d="M679.936 258.048c-8.192-8.192-20.48-8.192-28.672 0l-139.264 139.264L372.736 258.048c-8.192-8.192-20.48-8.192-28.672 0s-8.192 20.48 0 28.672l118.784 118.784L356.352 405.504c-12.288 0-20.48 8.192-20.48 20.48S344.064 450.56 356.352 450.56L491.52 450.56l0 90.112L356.352 540.672c-12.288 0-20.48 8.192-20.48 20.48s8.192 20.48 20.48 20.48L491.52 581.632l0 167.936c0 12.288 8.192 20.48 20.48 20.48s20.48-8.192 20.48-20.48l0-167.936 135.168 0c12.288 0 20.48-8.192 20.48-20.48s-8.192-20.48-20.48-20.48L532.48 540.672 532.48 450.56l135.168 0c12.288 0 20.48-8.192 20.48-20.48S679.936 409.6 667.648 409.6l-106.496 0 118.784-118.784C688.128 282.624 688.128 266.24 679.936 258.048z" p-id="1794" fill="#1296db"></path></svg>