<?xml version="1.0" standalone="no"?><!DOCTYPE svg PUBLIC "-//W3C//DTD SVG 1.1//EN" "http://www.w3.org/Graphics/SVG/1.1/DTD/svg11.dtd"><svg t="1523434448035" class="icon" style="" viewBox="0 0 1030 1024" version="1.1" xmlns="http://www.w3.org/2000/svg" p-id="964" xmlns:xlink="http://www.w3.org/1999/xlink" width="201.171875" height="200"><defs><style type="text/css"></style></defs><path d="M471.04 417.28c-7.68 0-15.36-3.584-20.48-10.24L390.144 328.192c-8.704-11.264-6.656-27.136 4.608-35.84 11.264-8.704 27.136-6.656 35.84 4.608L491.52 376.32c8.704 11.264 6.656 27.136-4.608 35.84-5.12 3.584-10.24 5.12-15.872 5.12zM596.992 417.28c-5.632 0-10.752-1.536-15.872-5.12a25.3952 25.3952 0 0 1-4.608-35.84L637.44 296.96c8.704-11.264 24.576-13.312 35.84-4.608 11.264 8.704 13.312 24.576 4.608 35.84l-60.928 78.848c-4.608 6.656-12.288 10.24-19.968 10.24z" p-id="965"></path><path d="M699.904 454.144H357.888c-14.336 0-25.6-11.264-25.6-25.6s11.264-25.6 25.6-25.6h342.016c14.336 0 25.6 11.264 25.6 25.6s-11.264 25.6-25.6 25.6zM699.904 609.792H357.888c-14.336 0-25.6-11.264-25.6-25.6s11.264-25.6 25.6-25.6h342.016c14.336 0 25.6 11.264 25.6 25.6s-11.264 25.6-25.6 25.6z" p-id="966"></path><path d="M528.896 781.312c-14.336 0-25.6-11.264-25.6-25.6V428.544c0-14.336 11.264-25.6 25.6-25.6s25.6 11.264 25.6 25.6v327.168c0 14.336-11.264 25.6-25.6 25.6z" p-id="967"></path><path d="M210.944 806.912c-7.168 0-14.336-3.072-19.456-9.216-68.096-80.384-105.472-182.272-105.472-286.72 0-244.224 198.656-442.88 442.88-442.88 74.24 0 143.872 17.408 208.384 51.712 12.288 6.656 17.408 22.016 10.24 34.816-6.656 12.288-22.016 17.408-34.816 10.24-56.32-30.208-118.272-45.568-183.808-45.568-216.064 0-391.68 175.616-391.68 391.68 0 92.672 33.28 182.784 93.184 253.952 9.216 10.752 7.68 27.136-3.072 35.84-4.608 4.096-10.752 6.144-16.384 6.144zM529.408 953.344c-79.36 0-156.16-20.48-222.208-59.904-12.288-7.168-16.384-23.04-9.216-34.816s23.04-16.384 34.816-9.216c58.368 34.304 126.464 52.736 196.608 52.736 216.064 0 391.68-175.616 391.68-391.68 0-91.648-32.256-180.736-91.136-251.392-9.216-10.752-7.68-27.136 3.072-35.84 10.752-9.216 27.136-7.68 35.84 3.072 66.56 79.36 103.424 180.736 103.424 284.16 0 244.224-198.656 442.88-442.88 442.88z" p-id="968"></path><path d="M724.992 167.424c-10.752 0-20.992-7.168-24.576-17.92l-30.72-100.864c-4.096-13.312 3.584-27.648 16.896-31.744 13.312-4.096 27.648 3.584 31.744 16.896l30.72 100.864c4.096 13.312-3.584 27.648-16.896 31.744-2.048 0.512-4.608 1.024-7.168 1.024zM350.208 998.4c-10.752 0-20.992-7.168-24.576-17.92l-30.72-100.864c-4.096-13.312 3.584-27.648 16.896-31.744 13.312-4.096 27.648 3.584 31.744 16.896l30.72 100.864c4.096 13.312-3.584 27.648-16.896 31.744-2.048 0.512-4.608 1.024-7.168 1.024z" p-id="969"></path></svg>