<?xml version="1.0" standalone="no"?><!DOCTYPE svg PUBLIC "-//W3C//DTD SVG 1.1//EN" "http://www.w3.org/Graphics/SVG/1.1/DTD/svg11.dtd"><svg t="1537258934776" class="icon" style="" viewBox="0 0 1026 1024" version="1.1" xmlns="http://www.w3.org/2000/svg" p-id="4359" xmlns:xlink="http://www.w3.org/1999/xlink" width="200.390625" height="200"><defs><style type="text/css"></style></defs><path d="M1025.482771 928.893922l0.068562-16.609283c0.194428-29.572526 0.394996-60.147892-5.209652-84.769662-19.926842-87.496773-59.96472-150.757562-125.998669-199.082174-16.545838-12.109806-33.343409-21.99085-51.293223-30.185486l-11.199063-4.843308 5.432733-4.315282c5.40408-4.28663 10.998495-8.716522 15.565511-14.619976 19.119453-24.678052 33.739429-47.603181 42.943045-79.284741 11.387351-39.21821 5.593392-90.408079-6.018064-120.709199-29.79663-77.725222-95.560426-124.124995-175.882799-124.130112l-4.367471 0.051165-13.967106 0.905626-9.009188 1.50733c-7.65126 1.238201-15.554254 2.521426-23.022343 4.854565-39.48734 12.350283-71.971172 34.352389-93.944626 63.615876-19.840884 26.449395-32.29452 53.884234-39.189557 86.35681-10.877745 51.167357 5.101181 103.636359 22.081924 133.019573 5.313006 9.169847 11.54801 17.22736 17.58347 25.021883l2.796696 3.616364c2.201132 2.854001 10.494005 12.866029 19.463284 21.113877l3.777023 3.473101-12.373819 5.335519c-15.864316 7.255241-32.237215 16.935718-47.361681 27.996634-58.096163 42.467207-98.087992 98.673323-118.869295 167.050644-3.180436 10.459213-5.203512 20.741393-7.347339 31.630395l-1.873674 9.359158c-5.002944 24.362874-4.91187 53.855582-4.825912 82.390475l0.00614 15.984043c-0.085958 16.22452-0.165776 31.544437 7.731078 41.940205 8.390088 11.038404 22.592554 11.949146 37.636179 11.949146l513.240247-0.039909c3.169179 0 6.659677 0.137123 10.304693 0.280386 4.040013 0.154519 8.218172 0.309038 12.270465 0.309038 10.069333 0 16.821107-1.00284 21.881356-3.261277 19.445888-8.676613 19.250436-26.804483 19.021216-47.826262L1025.482771 928.893922zM591.710436 484.078067c-5.117554-15.049764-8.889461-40.117696-5.066389-59.58098l0.89437-4.641717c1.39886-7.375991 2.721994-14.33959 5.037736-20.48352 14.941294-39.659255 40.399105-66.303079 77.828576-81.462337 7.181563-2.90619 15.331173-4.550643 24.030299-6.304589l2.521426-0.447185 8.659217-0.865717 0.429789-6.820336 6.64842 0.211824 0 6.338359c72.435753 1.295506 105.917308 45.040822 121.270994 81.823564 12.505825 29.968545 13.021571 72.671113 1.220804 101.543697-15.858176 38.793538-44.370557 65.850777-82.44778 78.247108-6.229888 2.016937-13.233396 3.025916-20.396539 4.063549-3.192715 0.464581-6.452969 0.934279-9.788947 1.518586-2.802836 0.493234-5.960759 0.751107-9.387811 0.751107-16.081257 0-34.874275-5.564739-46.078455-10.327206C630.160143 551.951921 605.504604 524.614296 591.710436 484.078067zM974.452537 924.922471l-0.034792 3.289929L455.435727 928.2124l-0.092098-10.137895c-0.246617-23.205515-0.50449-47.202045 3.3984-66.412572 17.491373-86.178755 59.620889-146.883325 132.583644-191.053314 21.772886-13.176091 48.066739-20.953218 68.544119-26.253944 15.875572-4.114714 33.171494-6.201236 51.396577-6.201236 40.662095 0 84.871993 10.522658 118.256334 28.151154 75.816756 40.037878 121.918747 103.011118 140.939963 192.525851C975.10029 870.64938 974.772832 898.238738 974.452537 924.922471z" p-id="4360" fill="#cdcdcd"></path><path d="M58.382689 441.742866c0-187.121771 152.241356-339.356988 339.363128-339.356988 88.74623 0 172.690084 34.054607 236.374522 95.887884l3.094478 3.003404 56.193837-25.704428-6.034437-6.40692C611.379405 88.452541 508.522806 44.002167 397.745816 44.002167c-219.319078 0-397.745816 178.421622-397.745816 397.7407 0 183.906543 124.617206 342.79632 303.044968 386.380978l3.868097 0.940418 41.940205-51.281967-10.608615-1.873674C176.083367 747.229442 58.382689 606.695732 58.382689 441.742866z" p-id="4361" fill="#cdcdcd"></path><path d="M368.041284 254.122745l0 171.968653-95.010911 95.004771c-5.622044 5.628184-8.716522 13.112646-8.716522 21.072945 0 7.960299 3.094478 15.439644 8.716522 21.056572 5.633301 5.628184 13.112646 8.722662 21.067828 8.722662 7.955182 0 15.433504-3.094478 21.061688-8.722662l103.738689-103.733573c3.409656-3.415796 5.833869-7.450692 7.398504-12.32163 0.246617-0.779759 0.435928-1.575892 0.722454-2.847861 0.165776-0.808412 0.280386-1.633197 0.447185-2.934842 0.097214-0.991584 0.149403-1.977028 0.149403-2.992147L427.616124 254.122745c0-16.425088-13.359262-29.78435-29.779234-29.78435C381.406686 224.337371 368.041284 237.696634 368.041284 254.122745z" p-id="4362" fill="#cdcdcd"></path></svg>