<?xml version="1.0" standalone="no"?><!DOCTYPE svg PUBLIC "-//W3C//DTD SVG 1.1//EN" "http://www.w3.org/Graphics/SVG/1.1/DTD/svg11.dtd"><svg t="1607499582771" class="icon" viewBox="0 0 1024 1024" version="1.1" xmlns="http://www.w3.org/2000/svg" p-id="64866" xmlns:xlink="http://www.w3.org/1999/xlink" width="200" height="200"><defs><style type="text/css"></style></defs><path d="M783.872 104.1408H138.1376C47.5136 104.1408 2.1504 149.504 2.1504 240.128v645.7344c0 90.624 45.3632 135.9872 135.9872 135.9872h645.7344c90.624 0 135.9872-45.3632 135.9872-135.9872V240.128c0-90.624-45.3632-135.9872-135.9872-135.9872zM281.9072 305.664c28.8768 23.4496 68.096 56.6272 87.1424 80.5888l-44.1344 43.6224c-16.384-23.4496-54.9888-59.392-83.8656-84.48l40.8576-39.7312z m1.6384 488.6528c-6.0416-12.4928-24.4736-33.792-34.304-42.496 11.9808-10.8544 31.6416-34.304 31.6416-64.8192V523.5712h-66.4576v-62.0544h126.8736v209.7152l46.7968-33.792c3.7888 17.408 11.9808 43.008 18.0224 55.6032-95.9488 73.4208-113.3568 88.1664-122.5728 101.2736z m119.296-325.2224v-53.9648h206.9504v53.9648H402.8416z m73.0112 251.0848h-56.6272V509.44H591.872v178.0736H475.8528v32.6656z m222.208 8.192c0 34.304-6.5536 51.712-27.7504 62.6688-20.1728 10.3424-51.712 11.9808-98.0992 11.9808-2.1504-18.0224-10.8544-47.4112-20.1728-64.3072 29.3888 1.6384 62.0544 1.1264 71.3728 1.1264 9.8304 0 13.1072-3.2768 13.1072-12.4928V377.5488H392.4992v-59.392h305.5616v410.2144z" p-id="64867"></path><path d="M475.8528 563.8144h58.2656v69.7344h-58.2656z" p-id="64868"></path><path d="M982.016 41.984c-25.4976-25.4976-60.1088-39.8336-96.1536-39.8336H240.128c-70.4512-0.3072-129.4336 53.248-135.9872 123.392v12.5952l19.6608 19.6608h72.0896l-38.7072-38.7072c8.8064-38.7072 43.2128-66.1504 82.944-65.9456h645.7344c22.528 0 44.1344 8.9088 60.1088 24.8832 15.9744 15.9744 24.8832 37.5808 24.8832 60.1088v645.7344c0.3072 39.7312-27.136 74.24-65.9456 82.944l-73.6256-73.6256V865.28l54.5792 54.5792h11.8784c70.4512-6.144 124.3136-65.2288 124.0064-135.9872V138.1376c0.1024-36.0448-14.2336-70.656-39.7312-96.1536z" p-id="64869"></path></svg>