<?xml version="1.0" standalone="no"?><!DOCTYPE svg PUBLIC "-//W3C//DTD SVG 1.1//EN" "http://www.w3.org/Graphics/SVG/1.1/DTD/svg11.dtd"><svg t="1537259224464" class="icon" style="" viewBox="0 0 1024 1024" version="1.1" xmlns="http://www.w3.org/2000/svg" p-id="5880" xmlns:xlink="http://www.w3.org/1999/xlink" width="200" height="200"><defs><style type="text/css"></style></defs><path d="M326.860373 615.405091c41.060161 0 74.464969 33.404808 74.464969 74.464969l0 167.546947c0 41.060161-33.404808 74.464969-74.464969 74.464969L159.313425 931.881976c-41.060161 0-74.464969-33.404808-74.464969-74.464969L84.848457 689.87006c0-41.060161 33.404808-74.464969 74.464969-74.464969L326.860373 615.405091M326.860373 559.556109 159.313425 559.556109c-71.970148 0-130.313951 58.343803-130.313951 130.313951l0 167.546947c0 71.971172 58.343803 130.313951 130.313951 130.313951l167.546947 0c71.970148 0 130.313951-58.34278 130.313951-130.313951L457.174324 689.87006C457.174324 617.900935 398.830521 559.556109 326.860373 559.556109L326.860373 559.556109z" p-id="5881" fill="#cdcdcd"></path><path d="M866.733187 615.405091c41.060161 0 74.464969 33.404808 74.464969 74.464969l0 167.546947c0 41.060161-33.404808 74.464969-74.464969 74.464969L699.18624 931.881976c-41.060161 0-74.464969-33.404808-74.464969-74.464969L624.721271 689.87006c0-41.060161 33.404808-74.464969 74.464969-74.464969L866.733187 615.405091M866.733187 559.556109 699.18624 559.556109c-71.970148 0-130.313951 58.343803-130.313951 130.313951l0 167.546947c0 71.971172 58.343803 130.313951 130.313951 130.313951l167.546947 0c71.970148 0 130.313951-58.34278 130.313951-130.313951L997.047138 689.87006C997.047138 617.900935 938.703335 559.556109 866.733187 559.556109L866.733187 559.556109z" p-id="5882" fill="#cdcdcd"></path><path d="M782.959202 112.765273c76.988442 0 139.621944 62.634526 139.621944 139.621944s-62.634526 139.621944-139.621944 139.621944S643.337257 329.374636 643.337257 252.387217 705.971783 112.765273 782.959202 112.765273M782.959202 56.916291c-107.955734 0-195.470927 87.516216-195.470927 195.470927 0 107.955734 87.515193 195.470927 195.470927 195.470927 107.955734 0 195.470927-87.515193 195.470927-195.470927C978.430128 144.432507 890.914936 56.916291 782.959202 56.916291L782.959202 56.916291z" p-id="5883" fill="#cdcdcd"></path><path d="M326.860373 94.149287c41.060161 0 74.464969 33.404808 74.464969 74.464969l0 167.546947c0 41.060161-33.404808 74.464969-74.464969 74.464969L159.313425 410.626171c-41.060161 0-74.464969-33.404808-74.464969-74.464969L84.848457 168.614256c0-41.060161 33.404808-74.464969 74.464969-74.464969L326.860373 94.149287M326.860373 38.300304 159.313425 38.300304c-71.970148 0-130.313951 58.343803-130.313951 130.313951l0 167.546947c0 71.971172 58.343803 130.313951 130.313951 130.313951l167.546947 0c71.970148 0 130.313951-58.34278 130.313951-130.313951L457.174324 168.614256C457.174324 96.644107 398.830521 38.300304 326.860373 38.300304L326.860373 38.300304z" p-id="5884" fill="#cdcdcd"></path></svg>