<?xml version="1.0" standalone="no"?><!DOCTYPE svg PUBLIC "-//W3C//DTD SVG 1.1//EN" "http://www.w3.org/Graphics/SVG/1.1/DTD/svg11.dtd"><svg t="1547189278674" class="icon" style="" viewBox="0 0 1024 1024" version="1.1" xmlns="http://www.w3.org/2000/svg" p-id="2547" xmlns:xlink="http://www.w3.org/1999/xlink" width="200" height="200"><defs><style type="text/css"></style></defs><path d="M210.895238 91.428571c10.776381-7.643429 21.223619-15.85981 32.633905-22.576761 0.536381 111.299048 0.329143 222.610286 0.097524 333.909333-49.554286-35.803429-98.633143-72.277333-148.028953-108.312381-27.879619-20.857905-56.417524-40.838095-84.016762-62.086095C77.909333 185.222095 144.457143 138.410667 210.895238 91.428571m-66.108952 81.627429c0.207238 7.911619-1.828571 15.518476-2.986667 23.247238-1.731048 10.191238 8.472381 21.126095 0.780191 30.390857-6.716952 11.971048-13.702095 23.79581-20.284953 35.84-2.608762 4.766476-3.864381 11.690667 0.463238 15.811048 3.974095 5.583238 11.068952 2.608762 16.725334 3.827809 4.449524 1.987048 8.423619 5.290667 13.336381 6.180572 4.790857 0.572952 9.008762-2.681905 13.714285-2.828191 5.229714 0.646095 10.374095 2.450286 15.725715 1.328762 4.022857-0.75581 7.277714-3.425524 11.081142-4.766476 4.85181-0.877714 10.008381 0.694857 14.750477-0.889905 5.156571-4.169143 6.41219-12.470857 3.072-18.176-7.009524-12.385524-15.067429-24.161524-21.845334-36.705524-6.985143-11.264 6.339048-23.856762 1.255619-35.535238-2.377143-5.607619-2.645333-11.739429-2.840381-17.724952-1.584762 0.048762-3.157333 0.109714-4.729904 0.158476-3.157333 7.387429-9.374476 13.056-17.103239 15.286857-7.643429-2.255238-13.080381-8.131048-16.018285-15.311238-1.706667-0.048762-3.401143-0.085333-5.095619-0.134095zM261.059048 68.949333c30.73219 19.833905 59.940571 41.910857 90.014476 62.72 49.761524 35.011048 99.584 69.924571 149.150476 105.20381-5.278476 4.144762-10.654476 8.143238-16.176762 11.934476-74.24 51.407238-148.431238 102.863238-222.98819 153.807238-0.304762-111.225905-0.304762-222.45181 0-333.665524m22.735238 127.463619c4.266667 7.058286 9.069714 13.763048 13.677714 20.614096 2.31619-1.828571 4.644571-3.644952 7.033905-5.400381 0.463238 23.235048 0.24381 46.482286 0.121905 69.729523 26.794667 3.023238 53.967238 1.499429 80.871619 0.524191 1.572571-23.417905 0.658286-46.896762 1.219047-70.326857 2.352762 1.77981 4.656762 3.608381 6.960762 5.449143 5.205333-6.92419 11.690667-13.458286 13.275429-22.320762-13.982476-6.058667-27.038476-15.494095-42.581334-16.920381-3.510857 7.92381-10.386286 15.408762-19.943619 14.201905-8.97219 0.219429-13.763048-7.753143-18.005333-14.299429-15.530667 2.864762-29.391238 10.48381-42.630095 18.748952zM520.228571 237.933714c81.042286-56.07619 161.304381-113.286095 242.712381-168.838095 0.390095 111.11619 0.146286 222.232381 0.121905 333.360762-81.200762-54.467048-161.913905-109.653333-242.834286-164.522667m130.718477-64.768c-2.096762 14.08-5.632 28.696381-1.340953 42.727619 5.546667 15.469714 19.797333 24.966095 30.805334 36.266667 5.717333 4.961524 2.864762 13.238857 3.961904 19.72419-7.740952 3.876571-16.042667 6.692571-23.259428 11.532191 17.517714 0.914286 35.096381 0.828952 52.626285 0.024381-7.753143-4.132571-15.823238-7.631238-24.027428-10.73981 1.462857-6.997333-2.425905-16.444952 3.766857-21.747809 11.483429-9.959619 24.905143-19.46819 30.305524-34.340572 4.473905-14.311619 0.182857-29.220571-2.194286-43.471238-23.552-0.060952-47.09181-0.073143-70.643809 0.024381zM777.886476 69.144381c21.248 13.494857 41.374476 28.647619 62.110476 42.910476 48.700952 34.218667 97.365333 68.486095 146.151619 102.570667 8.69181 6.180571 17.761524 11.897905 25.941334 18.773333-78.043429 56.417524-156.074667 112.847238-234.191238 169.179429-0.256-111.140571-0.231619-222.293333-0.012191-333.433905m42.24 91.623619c3.145143 9.874286 9.020952 20.138667 19.407238 23.56419 5.534476 0.609524 11.215238 0.231619 16.798476-0.02438-1.731048-6.716952-3.864381-13.750857-8.704-18.907429-7.545905-7.107048-18.139429-5.022476-27.501714-4.632381m47.481905 8.338286c-3.937524 4.352-6.326857 9.849905-7.911619 15.445333 6.363429 0.024381 13.824 1.426286 18.980571-3.169524 3.632762-4.230095 6.229333-9.289143 8.508953-14.34819-6.448762-0.816762-13.872762-1.743238-19.577905 2.072381m-16.164571 20.516571c-26.684952 3.279238-47.713524 31.073524-41.849905 57.721905 3.169524 24.929524 27.806476 44.373333 52.711619 42.264381 13.141333-1.682286 26.489905-7.192381 34.986666-17.712762 12.617143-14.396952 15.872-36.486095 7.363048-53.723429-8.850286-19.797333-31.817143-32.158476-53.211428-28.550095zM784.847238 419.218286c75.666286-54.759619 151.527619-109.312 226.913524-164.486096-0.024381 110.689524 0.280381 221.391238-0.146286 332.080762-75.593143-54.479238-150.552381-109.824-226.133333-164.339809-1.194667-0.560762-1.950476-2.413714-0.633905-3.254857m120.149333-33.731048c-18.724571 3.169524-37.607619 13.604571-45.019428 31.878095-1.950476 11.324952 8.630857 18.992762 15.920762 25.795048 9.191619 8.521143 21.528381 11.117714 33.109333 14.677333 8.71619 4.924952 15.518476 13.116952 25.283048 16.249905 2.011429-7.753143 1.840762-15.85981 2.596571-23.783619 10.910476-4.668952 19.224381-13.251048 28.769524-19.907048 8.69181 1.962667 13.397333 11.654095 21.979429 14.482286 1.77981-1.304381 8.69181 0.999619 8.777142-3.193905 1.243429-7.289905-3.352381-13.519238-5.205333-20.199619 1.499429-6.765714 6.89981-12.580571 5.546667-19.943619-1.231238-4.973714-7.302095-8.143238-11.934476-5.607619-6.448762 3.279238-10.581333 9.728-15.689143 14.628572-11.995429-5.083429-20.516571-15.725714-32.621715-20.784762-0.390095-7.521524-0.78019-15.030857-1.304381-22.528-12.153905 2.182095-19.480381 13.421714-30.208 18.236952zM11.105524 255.744c75.580952 54.454857 150.637714 109.641143 226.194286 164.144762 2.230857 1.072762 1.133714 3.559619-0.694858 4.352-75.361524 53.918476-149.76 109.190095-225.316571 162.803809-0.646095-110.433524-0.280381-220.867048-0.182857-331.300571m68.693333 115.395048c-3.803429 4.461714-5.144381 10.337524-7.448381 15.591619-4.486095 1.889524-8.935619 3.949714-12.909714 6.765714-8.143238 6.656-11.142095 17.298286-12.958476 27.209143-1.974857 9.825524-1.706667 19.919238-0.75581 29.842286 1.133714 8.326095 9.386667 14.774857 17.603048 15.030857 22.369524 0.365714 44.763429 0.451048 67.120762-0.097524 5.985524 0.719238 11.337143-2.352762 15.737904-5.985524 5.814857-7.302095 3.096381-17.054476 2.620953-25.526857-1.670095-12.348952-2.645333-25.392762-8.764953-36.498286-3.632762-6.66819-12.665905-7.265524-17.42019-12.714666-4.181333-8.728381-9.313524-18.200381-19.370667-21.089524-8.301714-1.389714-17.785905 0.963048-23.454476 7.472762zM421.095619 350.305524c10.349714-14.884571 15.030857-32.877714 24.393143-48.37181 6.41219 15.689143 11.897905 31.719619 17.980952 47.542857 6.4 0.768 12.8 1.584762 19.175619 2.633143 0.036571 5.424762 0.109714 10.886095 0.182857 16.335238 9.411048-1.584762 18.773333-3.474286 28.13562-5.412571-6.680381-20.065524-14.238476-39.826286-20.809143-59.928381 19.224381 7.460571 38.058667 15.85981 57.10019 23.79581-4.668952 13.177905-9.008762 26.465524-13.433905 39.728761 8.216381-1.926095 16.566857-3.303619 24.661334-5.729523 2.876952-0.585143 3.742476-3.791238 4.839619-6.034286 7.41181-17.688381 14.250667-35.620571 22.064762-53.126095 13.531429 9.874286 26.86781 20.041143 39.94819 30.500571-2.011429 3.388952-5.510095 5.485714-8.423619 7.996952-9.935238 7.545905-19.785143 15.201524-29.683809 22.796191 12.824381 0.219429 25.648762 0.24381 38.473142 0.182857 3.84 9.935238 6.948571 20.126476 9.776762 30.403048-8.338286 0.060952-16.664381 0.109714-24.978285 0.146285-3.047619 12.202667-5.851429 24.478476-8.594286 36.754286 10.496 2.657524 21.455238 3.718095 31.646476 7.484953 4.498286 9.216 7.472762 19.090286 10.556952 28.854857-12.726857 1.706667-25.551238 2.718476-38.241523 4.742095-3.462095 20.150857-4.973714 40.655238-9.20381 60.659809-6.180571 6.241524-14.165333 10.325333-21.418667 15.189334-4.498286-26.014476-8.813714-52.053333-13.494857-78.031238-8.374857-0.828952-16.774095-1.28-25.112381-2.340572-5.278476 21.699048-9.691429 43.641905-15.506285 65.194667-5.497905 7.448381-15.652571 9.764571-22.930286 15.177143-1.401905-25.514667-1.219048-51.114667-2.950095-76.604953-6.217143-0.475429-12.422095-0.975238-18.627048-1.511619-2.730667-7.777524-5.095619-15.652571-7.704381-23.454476-10.812952 11.641905-9.654857 28.14781-12.032 42.776381-2.840381 20.041143-4.656762 40.240762-8.240762 60.172191-15.993905-10.825143-31.780571-21.967238-47.006476-33.828572 9.837714-3.31581 19.858286-6.095238 29.854476-8.935619-1.913905-14.238476-3.449905-28.537905-5.558857-42.752-5.571048 4.327619-11.068952 8.764952-16.859428 12.8-4.985905-15.847619-9.71581-31.792762-14.32381-47.750095 11.105524-1.438476 22.137905-3.31581 33.133714-5.473524-1.194667-10.678857-2.450286-21.345524-3.900952-31.987809-2.962286-0.889905-5.997714-1.621333-8.752762-3.04762-7.021714-8.764952-11.727238-19.078095-16.871619-29.001142 7.497143-2.937905 15.835429-4.217905 22.735238-8.545524m37.315048 72.752762c9.447619-0.816762 18.919619-1.377524 28.416-1.292191-2.425905 6.168381-5.254095 12.166095-7.948191 18.212572 9.130667-3.169524 18.18819-6.546286 27.294476-9.813334-1.840762-9.764571-4.035048-19.456-6.204952-29.135238-6.022095-1.694476-12.092952-3.328-17.93219-5.510095-4.559238-5.083429-6.582857-12.007619-9.886477-17.90781-11.897905 12.04419-11.300571 29.854476-13.738666 45.446096m85.820952-22.528c-2.121143 11.422476-3.779048 22.918095-5.522286 34.401524 10.593524-2.206476 21.23581-4.181333 31.890286-6.11962-0.914286-11.178667-2.243048-22.308571-2.742857-33.511619-7.862857 1.816381-15.737905 3.535238-23.625143 5.229715z" p-id="2548" fill="#cdcdcd"></path><path d="M94.378667 372.284952c9.910857-3.145143 17.225143 6.13181 21.052952 13.836191-11.593143 0.256-23.186286 0.292571-34.779429 0.024381 3.474286-5.400381 6.741333-12.678095 13.726477-13.860572zM533.296762 606.244571c75.678476-56.929524 152.33219-112.554667 228.449524-168.911238 0.609524 48.859429-0.743619 97.743238 1.304381 146.578286 0.158476 62.256762 0.109714 124.513524-0.012191 186.770286-24.466286-16.420571-47.652571-34.608762-71.777524-51.492572-52.97981-37.205333-104.935619-75.812571-157.96419-112.944762m136.825905-66.279619c-2.29181 6.729143-4.205714 13.58019-6.034286 20.455619 5.290667-2.230857 10.703238-4.144762 16.347429-5.376 10.044952-1.670095 20.041143 1.414095 29.20838 5.351619-2.048-6.790095-4.193524-13.55581-6.363428-20.297142-11.056762-0.073143-22.113524-0.097524-33.158095-0.134096m6.948571 25.039238c-12.092952 2.80381-21.723429 12.629333-25.843809 24.161524-4.961524 16.030476 1.670095 35.474286 16.713142 43.617524 13.190095 8.313905 31.963429 6.217143 43.068953-4.681143 19.21219-15.189333 15.09181-50.236952-7.558095-60.099047-7.875048-4.912762-17.603048-3.925333-26.380191-2.998858m-13.104762 78.128762c2.243048 6.826667 4.205714 13.799619 7.314286 20.309334 11.032381-0.219429 22.089143-0.475429 33.121524-1.26781 1.645714-6.595048 3.388952-13.141333 5.095619-19.72419-13.860571 8.448-31.012571 6.826667-45.531429 0.682666zM777.813333 437.467429c78.372571 54.723048 156.281905 110.09219 234.349715 165.241904-40.996571 30.683429-83.370667 59.489524-124.830477 89.539048-36.656762 25.916952-72.46019 53.00419-109.446095 78.445714-0.26819-111.067429-0.134095-222.147048-0.073143-333.226666m75.349334 93.001142c0.24381 7.716571 0.085333 15.518476 1.316571 23.174096l7.363048-0.146286c2.413714-4.461714 0.914286-9.923048 1.462857-14.689524 4.327619-8.740571-6.838857-6.229333-10.142476-8.338286m-31.98781 2.182096c-0.828952 6.363429-0.853333 12.78781-0.585143 19.21219 2.730667 1.255619 5.558857 2.29181 8.508953 3.108572-2.048-7.558095 4.949333-22.076952-7.92381-22.320762m66.194286 1.109333c-2.340571 5.64419-0.950857 11.971048-0.426667 17.834667-0.548571 3.401143 7.753143 4.217905 8.301714 1.048381 1.80419-5.424762 0.49981-11.337143 0.060953-16.847238-0.670476-3.108571-3.31581-3.791238-7.936-2.03581m-74.947048 30.622476c-0.78019 28.269714-1.28 56.636952 0.085334 84.906667 0.329143 3.815619 4.522667 5.327238 7.838476 5.302857 22.381714 0.365714 44.775619 0.109714 67.157333 0.073143 5.022476-1.048381 12.446476 1.54819 16.030476-3.413333 2.986667-5.278476 2.182095-11.739429 3.291429-17.493334 5.071238-1.645714 10.093714-3.510857 14.823619-6.009905 8.740571-6.38781 10.48381-18.895238 6.534095-28.440381-4.559238-8.118857-14.311619-10.812952-22.211047-14.34819-0.329143-6.875429-0.633905-13.738667-1.036191-20.589714-30.841905 0.073143-61.68381 0.048762-92.513524 0.01219zM11.52 600.576c77.531429-53.820952 154.331429-108.690286 232.082286-162.169905 0.353524 110.83581 0.329143 221.671619 0.01219 332.495238-46.433524-33.682286-92.611048-67.705905-138.934857-101.522285-30.866286-23.174095-62.890667-44.836571-93.159619-68.803048m192.621714-56.295619c-6.66819 7.606857-13.507048 15.164952-18.614857 23.954286-9.423238 14.287238-11.971048 32.146286-22.503619 45.763047-18.566095 6.13181-41.545143 6.448762-54.832762 23.003429 15.932952 13.153524 38.278095 13.397333 57.624381 10.276571 11.227429-1.645714 15.140571-13.921524 16.591238-23.527619 2.450286-10.934857 4.729905-24.868571 15.567238-30.683428 3.669333-2.340571 5.766095 2.706286 6.497524 5.595428 1.024 16.591238 0.207238 33.243429 0.341333 49.859048 1.657905 0.01219 4.985905 0.036571 6.64381 0.036571-0.451048-18.127238-2.779429-37.400381 4.559238-54.552381 3.31581-9.240381 9.081905-18.553905 6.278095-28.793904-2.328381-9.618286-10.179048-15.957333-18.151619-20.931048zM261.022476 438.528c45.824 32 90.428952 65.706667 135.68 98.511238 30.890667 22.454857 61.696 45.04381 92.501334 67.608381-75.983238 55.466667-151.954286 110.969905-228.059429 166.278095-0.52419-110.799238-0.292571-221.598476-0.121905-332.397714m64.938667 110.652952c-5.193143 2.279619-7.241143 8.301714-10.703238 12.397715-7.716571 0.682667-15.481905 1.170286-23.100953 2.57219-3.84 0.841143-4.437333 5.473524-4.522666 8.728381 0.036571 22.211048-0.743619 44.470857 0.694857 66.657524 0.658286 5.851429 8.630857 5.546667 12.726857 5.412571 32.353524-0.414476 64.78019 0.853333 97.097143-0.694857 4.888381-0.341333 5.558857-6.704762 5.180952-10.337524 0.719238-22.528-0.121905-45.080381 0.329143-67.608381-7.619048-4.827429-16.896-4.729905-25.575619-4.937142-4.193524-4.473905-7.887238-10.154667-13.714286-12.519619-12.751238-1.084952-25.673143-0.828952-38.41219 0.329142zM269.153524 784.591238c78.153143-54.649905 155.63581-110.287238 234.154666-164.437333 0.451048 59.038476-0.097524 118.076952 0.24381 177.115428 1.877333 52.187429 1.170286 104.423619 0.853333 156.647619-55.625143-38.997333-110.226286-79.420952-165.619809-118.735238-22.808381-17.42019-46.872381-33.109333-69.632-50.590476m148.845714-64.195048c3.742476 0.060952 7.375238-0.073143 11.154286 0.036572-1.755429-2.377143-3.510857-4.754286-5.229714-7.15581-1.962667 2.389333-3.949714 4.742095-5.924572 7.119238m-42.154667 26.026667c-9.398857 9.325714-13.019429 22.406095-16.835047 34.669714 4.315429-0.926476 8.606476-1.926095 12.982857-2.608761 8.20419-0.548571 16.530286 3.779048 24.636952 1.060571 7.009524-2.121143 14.409143-3.401143 21.577143-1.170286-1.133714 15.445333-0.75581 30.951619-2.011428 46.396953-1.194667 4.949333-7.387429 5.351619-11.227429 6.595047-3.31581-6.058667-5.461333-12.81219-10.069333-18.090666-2.620952 2.145524-5.680762 4.120381-7.143619 7.302095-1.657905 10.142476 5.61981 20.955429 15.750095 23.05219 10.678857 3.705905 23.79581-3.998476 26.428952-14.835809 1.121524-16.810667 0.26819-33.694476 0.280381-50.517334 9.130667-3.218286 17.773714 1.03619 26.599619 2.633143 10.313143-1.828571 20.772571-3.181714 30.96381 0.134096-2.962286-11.349333-5.13219-23.759238-13.531429-32.572953-5.351619-6.570667-12.678095-11.093333-19.687619-15.652571-25.039238-14.409143-59.91619-8.338286-78.713905 13.604571zM519.484952 620.007619c78.177524 54.552381 155.964952 109.641143 234.142477 164.169143-77.641143 57.051429-155.940571 113.237333-234.020572 169.703619-0.572952-111.286857-0.329143-222.585905-0.121905-333.872762m76.873143 94.671238c-2.620952 3.425524-4.412952 7.789714-8.935619 9.191619-9.898667 5.156571-16.786286 14.34819-26.428952 19.894857 3.462095 2.438095 7.387429 4.352 11.885714 3.474286 21.211429 0.402286 42.496 0.658286 63.646476-1.316571-5.607619-7.399619-13.787429-12.324571-20.857904-18.139429-6.631619-4.120381-11.605333-10.825143-19.309715-13.104762m-35.644952 44.056381c0.219429 20.967619-0.463238 41.959619 0.195047 62.927238-1.206857 3.498667 0.987429 8.764952 4.864 9.398857 22.51581 1.072762 45.06819-0.048762 67.620572 0.49981 4.242286-8.326095 2.694095-18.005333 3.169524-26.989714-0.170667-14.372571 0.548571-28.830476-1.072762-43.105524-0.841143-4.376381-6.948571-4.230095-10.093714-4.254476-21.552762-0.49981-43.264-1.206857-64.682667 1.523809z" p-id="2549" fill="#cdcdcd"></path></svg>