<?xml version="1.0" standalone="no"?><!DOCTYPE svg PUBLIC "-//W3C//DTD SVG 1.1//EN" "http://www.w3.org/Graphics/SVG/1.1/DTD/svg11.dtd"><svg t="1532401828494" class="icon" style="" viewBox="0 0 1024 1024" version="1.1" xmlns="http://www.w3.org/2000/svg" p-id="1729" xmlns:xlink="http://www.w3.org/1999/xlink" width="200" height="200"><defs><style type="text/css"></style></defs><path d="M97.52381 0h292.571428c53.638095 0 97.52381 43.885714 97.52381 97.52381v292.571428c0 53.638095-43.885714 97.52381-97.52381 97.52381H97.52381c-53.638095 0-97.52381-43.885714-97.52381-97.52381V97.52381c0-53.638095 43.885714-97.52381 97.52381-97.52381z m536.380952 0h292.571428c53.638095 0 97.52381 43.885714 97.52381 97.52381v292.571428c0 53.638095-43.885714 97.52381-97.52381 97.52381H633.904762c-53.638095 0-97.52381-43.885714-97.52381-97.52381V97.52381c0-53.638095 43.885714-97.52381 97.52381-97.52381zM97.52381 536.380952h292.571428c53.638095 0 97.52381 43.885714 97.52381 97.52381v292.571428c0 53.638095-43.885714 97.52381-97.52381 97.52381H97.52381c-53.638095 0-97.52381-43.885714-97.52381-97.52381V633.904762c0-53.638095 43.885714-97.52381 97.52381-97.52381z m777.75238 326.704762c73.142857-78.019048 68.266667-202.361905-9.75238-275.504762-78.019048-73.142857-202.361905-68.266667-275.504762 9.752381s-68.266667 202.361905 9.752381 275.504762c65.828571 60.952381 163.352381 68.266667 238.933333 21.942857l146.285714 121.904762c9.752381 9.752381 26.819048 7.314286 34.133334-2.438095s7.314286-26.819048-2.438096-34.133333l-141.409524-117.028572zM585.142857 731.428571c0-80.457143 65.828571-146.285714 146.285714-146.285714s146.285714 65.828571 146.285715 146.285714-65.828571 146.285714-146.285715 146.285715-146.285714-65.828571-146.285714-146.285715z" fill="#DC630C" p-id="1730"></path></svg>