<?xml version="1.0" standalone="no"?><!DOCTYPE svg PUBLIC "-//W3C//DTD SVG 1.1//EN" "http://www.w3.org/Graphics/SVG/1.1/DTD/svg11.dtd"><svg t="1523434752850" class="icon" style="" viewBox="0 0 1024 1024" version="1.1" xmlns="http://www.w3.org/2000/svg" p-id="964" xmlns:xlink="http://www.w3.org/1999/xlink" width="200" height="200"><defs><style type="text/css"></style></defs><path d="M227.5584 839.1168c0 31.4112-16.9984 56.8832-37.9392 56.8832H151.7056c-20.9408 0-37.9392-25.472-37.9392-56.8832v-512c0-31.4112 16.9984-56.8832 37.9392-56.8832h37.9136c20.9408 0 37.9392 25.472 37.9392 56.8832v512zM910.2336 839.1168c0 31.4112-16.9728 56.8832-37.9136 56.8832h-37.9392c-20.9408 0-37.9136-25.472-37.9136-56.8832v-512c0-31.4112 16.9728-56.8832 37.9136-56.8832h37.9392c20.9408 0 37.9136 25.472 37.9136 56.8832v512zM455.1168 839.1168c0 31.4112-16.9984 56.8832-37.9392 56.8832h-37.9136c-20.9408 0-37.9392-25.472-37.9392-56.8832v-512c0-31.4112 16.9984-56.8832 37.9392-56.8832h37.9136c20.9408 0 37.9392 25.472 37.9392 56.8832v512zM682.6752 839.1168c0 31.4112-16.9984 56.8832-37.9392 56.8832h-37.888c-20.9408 0-37.9392-25.472-37.9392-56.8832v-512c0-31.4112 16.9984-56.8832 37.9392-56.8832h37.888c20.9408 0 37.9392 25.472 37.9392 56.8832v512z" fill="#CCD6DD" p-id="965"></path><path d="M938.6752 867.5584a56.8832 56.8832 0 0 1-56.8832 56.8832H142.2336a56.8832 56.8832 0 0 1 0-113.7664h739.5584c31.4112 0 56.8832 25.472 56.8832 56.8832z" fill="#9AAAB4" p-id="966"></path><path d="M995.5584 924.4416a56.8832 56.8832 0 0 1-56.8832 56.8832H85.3248a56.8832 56.8832 0 0 1 0-113.7664h853.3248c31.4368 0 56.9088 25.472 56.9088 56.8832z" fill="#CCD6DD" p-id="967"></path><path d="M1024 967.1168c0 23.552-19.1232 42.6752-42.6752 42.6752H42.6752a42.6752 42.6752 0 0 1 0-85.3504h938.6752c23.5264 0 42.6496 19.1232 42.6496 42.6752z" fill="#E1E8ED" p-id="968"></path><path d="M938.6752 298.6752c0-31.4112-27.1872-56.8832-60.672-56.8832H142.2336c-33.536 0-56.8832 25.472-56.8832 56.8832 0 21.376 10.9824 39.7568 28.4416 49.4848V384h113.7664v-28.4416h113.7664V384h113.7664v-28.4416h113.7664V384h113.7664v-28.4416h113.7664V384h113.7664v-37.2992c17.1008-10.0864 28.5184-27.7504 28.5184-48.0256z" fill="#9AAAB4" p-id="969"></path><path d="M56.8832 254.4128c0-29.3376 28.8-41.0624 28.8-41.0624L509.6192 14.2336l428.0064 199.1168s29.4912 6.5792 29.4912 41.2416v15.6416H56.8832v-15.8208z" fill="#CCD6DD" p-id="970"></path><path d="M512 86.5024S218.4704 224.8704 189.1584 237.312c-29.312 12.4416-19.5072 32.896 0.0256 32.896h644.1472c30.2336 0 23.1168-23.1168-0.896-35.5584C808.448 222.2336 512 86.5024 512 86.5024z" fill="#9AAAB4" p-id="971"></path><path d="M967.1168 270.2336a28.416 28.416 0 0 1-28.4416 28.4416H85.3248a28.416 28.416 0 1 1 0-56.8832l853.3248 0.1792a28.2624 28.2624 0 0 1 28.4672 28.2624z" fill="#CCD6DD" p-id="972"></path><path d="M512 600.2944m-204.8 0a204.8 204.8 0 1 0 409.6 0 204.8 204.8 0 1 0-409.6 0Z" fill="#F9C82D" p-id="973"></path><path d="M512 600.2944m-164.4544 0a164.4544 164.4544 0 1 0 328.9088 0 164.4544 164.4544 0 1 0-328.9088 0Z" fill="#E8B321" p-id="974"></path><path d="M492.0576 653.6704h-41.3696a11.3664 11.3664 0 0 1-8.9088-4.8128 20.9408 20.9408 0 0 1-3.7632-9.7536c0.4352-3.584 1.6896-6.5024 3.7632-8.7808s5.0432-3.584 8.9088-3.8656h41.3696v-13.5168l-41.3696-0.2048c-3.8656-0.2816-6.8352-1.6384-8.9088-4.0704s-3.328-5.504-3.7632-9.216a15.4112 15.4112 0 0 1 3.7632-8.7808 12.8 12.8 0 0 1 8.9088-3.8656h30.8736l-28.7232-50.5856a31.8976 31.8976 0 0 1-4.0704-6.528 17.6128 17.6128 0 0 1-1.7152-8.6784 20.352 20.352 0 0 1 4.2752-9.7536c2.1504-2.5088 6.144-4.1216 12.0064-4.8128a17.1776 17.1776 0 0 1 9.216 3.5328c2.7136 2.0736 4.9408 4.3264 6.656 6.7584l32.5888 59.5968 35.8144-60.032c1.7152-2.432 3.9424-4.5824 6.656-6.4256a20.5312 20.5312 0 0 1 9.216-3.4304c2.1504 0.1536 4.1216 0.4352 5.888 0.8448a11.6736 11.6736 0 0 1 8.1408 6.4256 24.4736 24.4736 0 0 1 2.048 7.296 19.2 19.2 0 0 1-4.2752 11.8016l-33.2288 54.016h31.5136c3.712 0.2816 6.656 1.5616 8.7808 3.8656a13.9776 13.9776 0 0 1 3.6352 8.7808 15.7696 15.7696 0 0 1-3.7632 9.4208 12.544 12.544 0 0 1-8.9088 4.2752l-40.96 0.2048v13.0816h41.1648c3.712 0.2816 6.656 1.7152 8.7808 4.2752 2.1504 2.56 3.3536 5.6576 3.6352 9.216a15.7952 15.7952 0 0 1-3.6352 9.3184 12.2368 12.2368 0 0 1-8.7808 4.1728l-41.1648-0.2048v22.7328c-0.5632 12.16-7.2192 18.2272-19.9424 18.2272-6.2976 0-11.1872-1.5104-14.6944-4.5056-3.5072-2.9952-5.4016-7.5776-5.6832-13.7216l0.0256-22.2976z" fill="#C18B10" p-id="975"></path></svg>