<?xml version="1.0" standalone="no"?><!DOCTYPE svg PUBLIC "-//W3C//DTD SVG 1.1//EN" "http://www.w3.org/Graphics/SVG/1.1/DTD/svg11.dtd"><svg t="1607498989787" class="icon" viewBox="0 0 1024 1024" version="1.1" xmlns="http://www.w3.org/2000/svg" p-id="62473" xmlns:xlink="http://www.w3.org/1999/xlink" width="200" height="200"><defs><style type="text/css"></style></defs><path d="M937.76 0h-20a29.568 29.568 0 0 0-10.016 1.824 29.568 29.568 0 0 0-9.984-1.824H77.984A29.984 29.984 0 0 0 48 29.984v939.744c0 16.576 13.44 29.984 29.984 29.984h12c2.624 0-4.256-0.064 8.64-0.576 8.64 0.864 6.912-2.144 13.536-8.768l95.616-88.352 88.864 88.352c5.952 5.984 13.76 8.832 21.6 8.768a29.856 29.856 0 0 0 21.6-8.768l88.384-88.352 88.352 88.352c5.984 5.984 13.76 8.832 21.6 8.768a29.856 29.856 0 0 0 21.6-8.768l68.384-83.456 73.216 77.92c11.808 11.424 25.76 16.8 37.376 5.184a30.112 30.112 0 0 0 0.384-42.208l-69.632-69.76c-9.152-9.664-11.776-16.672-17.216-22.176-5.44-5.472-13.152-14.336-24.128-14.336-8.64 0.096-13.408 4.96-20.16 14.336-6.72 9.408-4.48 7.136-13.632 19.648l-56.192 66.592-81.824-86.24c-8.32-8.224-17.184-18.304-28.16-14.24-10.944-4.064-20.896 6.016-29.216 14.24l-80.736 86.24-82.016-86.24a29.6 29.6 0 0 0-28.48-7.424 29.44 29.44 0 0 0-25.12 8l-70.464 50.464V65.504H917.76v904.224c0 16.576 3.424 29.408 20 29.408h7.52c16.544 0 22.464-12.832 22.464-29.44V30.016A30.016 30.016 0 0 0 937.76 0z m-289.92 199.936v-20A20 20 0 0 0 627.84 160H187.968a20 20 0 0 0-20 19.968v20a20 20 0 0 0 20 20H627.84c11.04 0 20-8.96 20-20z m-159.968 139.968v-20a20 20 0 0 0-20-20H187.968a20 20 0 0 0-20 20v20a20 20 0 0 0 20 20h279.904c11.04 0 20-8.96 20-20z m-299.904 99.968h179.936c11.04 0 20 8.96 20 20v20c0 11.04-8.96 20-20 20H187.968a20 20 0 0 1-20-20v-20c0-11.04 8.96-20 20-20zM684.992 448v-19.52H736V448h70.496v40.512H736v20.992h72v112.48h-39.008v-72H616v-40.48h68.992v-20.992h-70.496V448h70.496z m-212.992 142.496v-58.496l54.016-103.488h53.984L518.496 544h22.496l19.52-32.992h53.984l-85.504 148.48h75.008v45.024H472v-39.04l44.992-74.976H472z m144.736 124.48v-40.48h96.768V563.52h44.992v111.04h44.992v40.48h-36l14.272 17.248c1.376 2.624 5.376 3.84 12 3.744h11.232v37.12h-31.488c-9.76 0.384-16.992-2.624-21.76-8.992l-17.248-20.992-22.496 22.496c-4.384 3.616-8.064 6.08-11.072 7.296a32 32 0 0 1-11.424 1.696h-72v-36h42.752a33.28 33.28 0 0 0 20.992-7.136l18.016-16.48h-82.528z m17.28-103.488c-4.384-1.12-8.64-5.856-12.768-14.24l-15.744-32.256h46.496l4.48 8.256c2.144 4.992 6.656 7.264 13.504 6.752h24v34.496h-40.48l3.008 7.52c1.376 4.608 4.352 6.624 8.96 5.984h30.016v31.488h-53.984c-8.256 0.256-13.76-3.232-16.512-10.496l-14.976-37.504h24z m-30.016 163.136H472v-43.136h132v43.136z" fill="#e6e6e6" p-id="62474"></path></svg>