<?xml version="1.0" standalone="no"?><!DOCTYPE svg PUBLIC "-//W3C//DTD SVG 1.1//EN" "http://www.w3.org/Graphics/SVG/1.1/DTD/svg11.dtd"><svg t="1532586702737" class="icon" style="" viewBox="0 0 1024 1024" version="1.1" xmlns="http://www.w3.org/2000/svg" p-id="2083" xmlns:xlink="http://www.w3.org/1999/xlink" width="200" height="200"><defs><style type="text/css"></style></defs><path d="M 441.585 411.417 a 29.256 29.256 0 0 0 -29.256 -30.1703 H 269.706 a 30.1703 30.1703 0 0 0 0 60.3406 h 142.623 a 29.256 29.256 0 0 0 29.256 -30.1703 Z M 241.364 612.552 a 29.256 29.256 0 0 0 28.3418 27.4275 H 314.504 a 365.701 365.701 0 0 1 19.1993 -60.3406 h -63.9976 a 29.256 29.256 0 0 0 -28.3418 30.1703 Z m 421.47 -211.192 A 316.331 316.331 0 0 0 341.017 713.12 a 317.245 317.245 0 0 0 320.902 310.845 a 317.245 317.245 0 0 0 321.816 -310.845 a 316.331 316.331 0 0 0 -320.902 -311.76 Z m 0 562.265 A 256.905 256.905 0 0 1 405.929 712.206 A 256.905 256.905 0 0 1 662.834 457.129 a 256.905 256.905 0 0 1 260.562 255.076 a 256.905 256.905 0 0 1 -261.476 251.419 Z m -40.2271 -752.429 A 29.256 29.256 0 0 0 593.351 182.854 H 269.706 a 30.1703 30.1703 0 0 0 0 60.3406 h 323.645 a 29.256 29.256 0 0 0 29.256 -30.1703 Z m 0 0" fill="#cdcdcd" p-id="2084"></path><path d="M 771.63 682.949 h -85.9396 V 574.154 c 0 -28.3418 0 -52.1123 -31.9988 -52.1123 s -31.9988 22.8563 -31.9988 52.1123 V 713.12 c 0 28.3418 0 30.1703 31.9988 30.1703 H 771.63 c 29.256 0 53.9408 0 53.9408 -30.1703 S 799.057 682.949 771.63 682.949 Z m 0 0" fill="#cdcdcd" p-id="2085"></path><path d="M 728.66 0.003657 H 155.424 A 114.281 114.281 0 0 0 40.2286 112.457 v 871.282 l 171.879 -125.252 l 80.4541 59.4263 h 43.8841 l -10.971 -46.6268 l -114.281 -91.4251 l -110.624 88.6824 V 112.457 a 52.1123 52.1123 0 0 1 54.8551 -53.0266 h 573.236 a 52.1123 52.1123 0 0 1 54.8551 53.0266 v 269.704 a 359.301 359.301 0 0 1 59.4263 27.4275 V 112.457 A 114.281 114.281 0 0 0 728.66 0.003657 Z m 0 0" fill="#cdcdcd" p-id="2086"></path></svg>