<?xml version="1.0" standalone="no"?><!DOCTYPE svg PUBLIC "-//W3C//DTD SVG 1.1//EN" "http://www.w3.org/Graphics/SVG/1.1/DTD/svg11.dtd"><svg t="1535095855110" class="icon" style="" viewBox="0 0 1024 1024" version="1.1" xmlns="http://www.w3.org/2000/svg" p-id="1543" xmlns:xlink="http://www.w3.org/1999/xlink" width="200" height="200"><defs><style type="text/css"></style></defs><path d="M686.08 983.04h-593.92c-16.384 0-30.72-14.336-30.72-30.72S75.776 921.6 92.16 921.6h593.92c16.384 0 30.72 14.336 30.72 30.72s-14.336 30.72-30.72 30.72z" fill="#1296db" p-id="1544"></path><path d="M870.4 983.04h-79.872c-16.384 0-30.72-14.336-30.72-30.72s14.336-30.72 30.72-30.72h79.872c16.384 0 30.72 14.336 30.72 30.72s-14.336 30.72-30.72 30.72z" fill="#1296db" p-id="1545"></path><path d="M323.584 976.896c-30.72 0-59.392-16.384-75.776-45.056L14.336 530.432c-12.288-20.48-14.336-45.056-8.192-67.584 6.144-22.528 20.48-40.96 40.96-53.248L657.408 57.344c43.008-24.576 96.256-10.24 120.832 32.768L1009.664 491.52c24.576 43.008 10.24 96.256-32.768 120.832L368.64 964.608c-14.336 8.192-30.72 12.288-45.056 12.288zM67.584 499.712L301.056 901.12c8.192 12.288 24.576 16.384 36.864 10.24l610.304-352.256c12.288-8.192 16.384-24.576 10.24-36.864L724.992 120.832c-8.192-14.336-24.576-18.432-36.864-10.24L77.824 462.848c-6.144 4.096-10.24 10.24-12.288 16.384-2.048 6.144 0 14.336 2.048 20.48z" fill="#1296db" p-id="1546"></path><path d="M12.288 526.336C-12.288 483.328 2.048 430.08 45.056 405.504L655.36 55.296c43.008-24.576 96.256-10.24 120.832 32.768l65.536 114.688L77.824 641.024 12.288 526.336z" fill="#1296db" p-id="1547"></path><path d="M77.824 641.024L12.288 526.336c-12.288-20.48-14.336-45.056-8.192-67.584 6.144-22.528 20.48-40.96 40.96-53.248L655.36 55.296c43.008-24.576 96.256-10.24 120.832 32.768l65.536 114.688L77.824 641.024zM698.368 104.448c-4.096 0-10.24 2.048-14.336 4.096L75.776 458.752c-6.144 4.096-10.24 10.24-12.288 16.384-2.048 6.144 0 14.336 2.048 20.48l34.816 61.44L757.76 178.176l-34.816-61.44c-6.144-8.192-14.336-12.288-24.576-12.288z" fill="#1296db" p-id="1548"></path><path d="M98.304 616.448c-10.24 0-20.48-6.144-26.624-16.384-8.192-14.336-4.096-32.768 10.24-40.96L755.712 172.032c14.336-8.192 32.768-4.096 40.96 10.24 8.192 14.336 4.096 32.768-10.24 40.96l-671.744 389.12c-6.144 4.096-10.24 4.096-16.384 4.096zM620.544 471.04c-6.144 0-14.336-4.096-18.432-10.24-6.144-10.24-2.048-22.528 8.192-28.672l106.496-61.44c10.24-6.144 22.528-2.048 28.672 8.192 6.144 10.24 2.048 22.528-8.192 28.672l-106.496 61.44c-4.096 2.048-6.144 2.048-10.24 2.048zM378.88 614.4c-16.384 0-30.72-14.336-30.72-30.72s14.336-30.72 30.72-30.72 30.72 14.336 30.72 30.72-14.336 30.72-30.72 30.72z m143.36 0c-16.384 0-30.72-14.336-30.72-30.72s14.336-30.72 30.72-30.72 30.72 14.336 30.72 30.72-14.336 30.72-30.72 30.72zM389.12 696.32c0-12.288 8.192-20.48 20.48-20.48s20.48 8.192 20.48 20.48 8.192 20.48 20.48 20.48 20.48-8.192 20.48-20.48 8.192-20.48 20.48-20.48 20.48 8.192 20.48 20.48c0 34.816-26.624 61.44-61.44 61.44s-61.44-26.624-61.44-61.44z" fill="#1296db" p-id="1549"></path></svg>