<?xml version="1.0" standalone="no"?><!DOCTYPE svg PUBLIC "-//W3C//DTD SVG 1.1//EN" "http://www.w3.org/Graphics/SVG/1.1/DTD/svg11.dtd"><svg t="1607485957937" class="icon" viewBox="0 0 1024 1024" version="1.1" xmlns="http://www.w3.org/2000/svg" p-id="59805" xmlns:xlink="http://www.w3.org/1999/xlink" width="200" height="200"><defs><style type="text/css"></style></defs><path d="M730.976 411.179c-147.207 0-271.167 120.088-271.167 271.169 0 151.082 120.088 271.168 271.167 271.168 151.08 0 271.167-120.088 271.167-271.168 3.875-151.081-120.087-271.17-271.167-271.17z m0 495.85c-123.964 0-224.68-100.719-224.68-224.681 0-123.963 100.717-224.68 224.68-224.68 123.963 0 224.68 100.718 224.68 224.68s-100.718 224.68-224.68 224.68zM231.252 248.48h387.382v61.98H231.252v-61.98z m0 158.825h309.906v61.981H231.252v-61.981z m0 182.07h154.95v61.979h-154.95v-61.98zM421.07 876.04H149.902V120.643h623.685V337.58c15.494 0 50.357 3.87 65.854 3.87V89.656c0-15.5-15.499-30.994-30.993-30.994H115.04c-15.5 0-30.994 15.494-30.994 30.994v821.248c0 15.495 15.494 30.988 30.994 30.988h344.769c-15.496-19.37-27.12-50.357-38.74-65.852z m464.856-244.053c-3.87-11.619-11.619-15.495-23.244-19.37L789.082 601l-34.862-65.855c-7.75-19.369-38.737-19.369-50.363 0L668.997 601l-73.607 11.619c-11.619 0-19.37 7.748-23.245 19.369-3.868 11.623 0 19.37 7.75 27.117l54.231 50.362-7.744 77.477c0 11.619 3.875 19.37 11.62 27.118 7.748 7.743 19.368 7.743 30.992 3.869l65.854-34.862L800.7 817.93c3.873 3.874 7.747 3.874 11.622 3.874 7.749 0 11.62-3.874 15.495-3.874 7.749-7.744 11.623-15.495 11.623-27.114l-11.623-73.605 54.237-50.357c3.87-11.624 3.87-23.244 3.87-34.867z m-112.338 54.236c-7.75 7.744-7.75 15.495-7.75 23.243l3.875 34.863-27.118-19.369c-3.874-3.875-7.744-3.875-11.618-3.875-3.875 0-7.749 0-11.623 3.875l-30.989 15.494 3.876-30.988c0-7.748 0-19.369-7.75-23.243l-23.243-23.244 34.867-3.875c7.743 0 15.495-7.748 19.369-15.494l15.495-30.992 15.495 30.992c3.875 7.744 11.622 11.62 19.369 15.494l34.863 3.875-27.118 23.244z" p-id="59806"></path></svg>