<?xml version="1.0" standalone="no"?><!DOCTYPE svg PUBLIC "-//W3C//DTD SVG 1.1//EN" "http://www.w3.org/Graphics/SVG/1.1/DTD/svg11.dtd"><svg t="1607486015284" class="icon" viewBox="0 0 1024 1024" version="1.1" xmlns="http://www.w3.org/2000/svg" p-id="59946" xmlns:xlink="http://www.w3.org/1999/xlink" width="200" height="200"><defs><style type="text/css"></style></defs><path d="M836.885 63.765H187.627a64.17 64.17 0 0 0-64.107 64.086v766.144a64.17 64.17 0 0 0 64.107 64.085h649.258a64.17 64.17 0 0 0 64.107-64.085V127.85a64.15 64.15 0 0 0-64.107-64.086z m7.531 830.23a7.53 7.53 0 0 1-7.53 7.509h-649.26a7.51 7.51 0 0 1-7.509-7.51V127.852c0-4.139 3.371-7.51 7.51-7.51h649.258c4.139 0 7.531 3.371 7.531 7.51v766.144z" p-id="59947"></path><path d="M510.656 563.584c0-15.616-12.65-28.288-28.31-28.288h-161.45a28.288 28.288 0 1 0 0 56.576h161.45c15.66 0 28.31-12.672 28.31-28.288z m-189.76-124.779h382.741a28.288 28.288 0 1 0 0-56.576H320.896a28.288 28.288 0 1 0 0 56.576z m0-147.456h382.741a28.288 28.288 0 1 0 0-56.597H320.896a28.288 28.288 0 1 0 0 56.597z m483.776 284.992l-116.075 28.352-89.173-79.53-8.875 119.125-103.168 60.203 110.55 45.269 25.344 116.757 77.226-91.136 118.87 11.926-62.827-101.59 48.128-109.376z" p-id="59948"></path></svg>