<?xml version="1.0" standalone="no"?><!DOCTYPE svg PUBLIC "-//W3C//DTD SVG 1.1//EN" "http://www.w3.org/Graphics/SVG/1.1/DTD/svg11.dtd"><svg t="1607499120928" class="icon" viewBox="0 0 1024 1024" version="1.1" xmlns="http://www.w3.org/2000/svg" p-id="63339" xmlns:xlink="http://www.w3.org/1999/xlink" width="200" height="200"><defs><style type="text/css"></style></defs><path d="M846.6 884.9c0 16.4-13.4 29.8-29.8 29.8H201.2c-16.4 0-29.8-13.4-29.8-29.8V139c0-16.4 13.4-29.8 29.8-29.8h615.6c10.4 0 19.4 5.3 24.7 13.3l32.2-32.1C860 74.3 839.6 64 816.6 64H201.2c-41.4 0-75 33.6-75 75.1v746.2c0 41.4 33.6 75.1 75.1 75.1h615.6c41.4 0 75.1-33.6 75.1-75.1V318.4l-45.3 45.3-0.1 521.2z m-101-218.2H272.5c-9.9 0-18.1 8.1-18.1 18.1v11.3c0 9.9 8.1 18.1 18.1 18.1h473c9.9 0 18.1-8.1 18.1-18.1v-11.3c0-9.9-8.1-18.1-18-18.1z m-90.5-357.1H272.6c-9.9 0-18.1 8.1-18.1 18.1V339c0 9.9 8.1 18.1 18.1 18.1h334.9l47.6-47.5z m-1.3 244.1l-123.3 22.8c-12.5 2.3-23.4-8.6-21.1-21.1l1.4-7.7H272.5c-9.9 0-18.1 8.1-18.1 18.1V577c0 9.9 8.1 18.1 18.1 18.1h473c9.9 0 18.1-8.1 18.1-18.1v-11.3c0-9.9-8.1-18.1-18.1-18.1h-97.7l6 6.1z m-381.3-77.6h219.3l47.6-47.6H272.5c-9.9 0-18.1 8.1-18.1 18.1V458c0.1 10 8.2 18.1 18.1 18.1z m491.1-18v-10.6L735 476.1h10.5c10 0 18.1-8.1 18.1-18z m0 0" p-id="63340"></path><path d="M929 157.5c-24.7-24.7-65.2-24.7-89.9 0l-279.9 280 89.9 89.9 280-280c24.7-24.8 24.7-65.2-0.1-89.9z m-397.8 382c-1.7 9.2 6.3 17.3 15.6 15.6l91.1-16.8-89.9-89.9-16.8 91.1z m0 0" p-id="63341"></path></svg>