<?xml version="1.0" standalone="no"?><!DOCTYPE svg PUBLIC "-//W3C//DTD SVG 1.1//EN" "http://www.w3.org/Graphics/SVG/1.1/DTD/svg11.dtd"><svg t="1607499417502" class="icon" viewBox="0 0 1025 1024" version="1.1" xmlns="http://www.w3.org/2000/svg" p-id="63810" xmlns:xlink="http://www.w3.org/1999/xlink" width="200.1953125" height="200"><defs><style type="text/css"></style></defs><path d="M969.937888 833.192547v-19.080746-19.080745l44.521739-34.981367c3.180124-3.180124 6.360248-9.540373 3.180125-12.720496l-41.341615-69.962733c-3.180124-3.180124-9.540373-6.360248-12.720497-3.180125l-50.881988 19.080746c-9.540373-9.540373-22.26087-15.900621-34.981366-19.080746l-6.360249-54.062111c0-6.360248-6.360248-9.540373-9.540372-9.540373h-82.68323c-6.360248 0-9.540373 3.180124-9.540373 9.540373l-6.360248 54.062111c-12.720497 6.360248-25.440994 12.720497-34.981367 19.080746l-60.42236-22.26087c-6.360248-3.180124-9.540373 0-12.720497 3.180124l-41.341615 69.962733c-3.180124 3.180124 0 9.540373 3.180124 12.720497l44.52174 34.981367v38.16149l-44.52174 34.981367c-3.180124 3.180124-6.360248 9.540373-3.180124 12.720497l41.341615 69.962733c3.180124 3.180124 9.540373 6.360248 12.720497 3.180124l50.881988-19.080745c9.540373 9.540373 22.26087 15.900621 34.981366 19.080745l6.360248 54.062112c0 6.360248 6.360248 9.540373 9.540373 9.540372h82.68323c6.360248 0 9.540373-3.180124 9.540373-9.540372l6.360248-54.062112c12.720497-6.360248 25.440994-12.720497 34.981367-19.080745l50.881987 19.080745c6.360248 3.180124 9.540373 0 12.720497-3.180124l41.341615-69.962733c3.180124-3.180124 0-9.540373-3.180124-12.720497 9.540373 0-34.981366-31.801242-34.981367-31.801242z m-155.826087 50.881987c-41.341615 0-73.142857-31.801242-73.142857-73.142857s31.801242-73.142857 73.142857-73.142857c41.341615 0 73.142857 31.801242 73.142857 73.142857s-31.801242 73.142857-73.142857 73.142857zM814.111801 553.341615c15.900621 0 31.801242 3.180124 47.701864 6.360248l9.540372-47.701863c6.360248-60.42236-41.341615-47.701863-41.341615-47.701863-3.180124 0-41.341615-12.720497-50.881987 47.701863-3.180124 15.900621-6.360248 31.801242-12.720497 47.701863 15.900621-6.360248 31.801242-6.360248 47.701863-6.360248zM508.819876 648.745342c101.763975 0 181.267081-79.503106 181.267081-181.267081v-286.21118C690.086957 79.503106 607.403727 0 508.819876 0c-101.763975 0-181.267081 79.503106-181.267081 181.267081v286.21118c0 98.583851 79.503106 181.267081 181.267081 181.267081z" p-id="63811"></path><path d="M607.403727 925.416149h-54.062112v-95.403727c6.360248 0 12.720497-3.180124 19.080745-3.180124 0-9.540373-3.180124-19.080745-3.180124-28.621118 0-22.26087 3.180124-44.521739 9.540373-63.602484-22.26087 6.360248-47.701863 9.540373-73.142857 9.540372-136.745342 0-251.229814-101.763975-270.310559-235.329192-9.540373-57.242236-31.801242-41.341615-47.701864-41.341615-6.360248 0-50.881988-15.900621-44.521739 44.521739 19.080745 168.546584 149.465839 298.931677 314.832298 321.192547v95.403726h-82.68323c-25.440994 0-54.062112 15.900621-54.062111 44.521739v9.540373c0 28.621118 34.981366 41.341615 50.881987 41.341615h267.130435c15.900621 0 31.801242-6.360248 41.341615-19.080745-28.621118-25.440994-54.062112-50.881988-73.142857-79.503106z" p-id="63812"></path></svg>