<?xml version="1.0" standalone="no"?><!DOCTYPE svg PUBLIC "-//W3C//DTD SVG 1.1//EN" "http://www.w3.org/Graphics/SVG/1.1/DTD/svg11.dtd"><svg t="1607500143450" class="icon" viewBox="0 0 1024 1024" version="1.1" xmlns="http://www.w3.org/2000/svg" p-id="69439" xmlns:xlink="http://www.w3.org/1999/xlink" width="200" height="200"><defs><style type="text/css"></style></defs><path d="M527.1808 286.336h-47.872a7.936 7.936 0 0 0-7.936 7.8592V564.48c0 2.56 1.1776 4.9152 3.2768 6.4l164.4544 118.4768c3.584 2.56 8.5504 1.8688 11.1616-1.664l28.4416-38.2976a7.68 7.68 0 0 0-1.6896-11.008l-141.8752-101.1968v-242.9952a7.936 7.936 0 0 0-7.9616-7.8592z m218.7008 73.8304l156.0064 37.6064c4.9664 1.1776 9.8304-2.56 9.8304-7.5776l0.8192-158.5408a7.936 7.936 0 0 0-12.8512-6.1952l-156.8 120.8576a7.808 7.808 0 0 0 2.9952 13.824z m166.8352 295.6288l-56.3968-19.1488a7.9872 7.9872 0 0 0-10.0608 4.7104 344.7552 344.7552 0 0 1-81.4848 125.2864 351.488 351.488 0 0 1-111.9232 74.496 354.4832 354.4832 0 0 1-137.0112 27.3152 352.6656 352.6656 0 0 1-248.9344-101.8368 347.9552 347.9552 0 0 1-75.52-110.4384 343.04 343.04 0 0 1-27.4688-135.1936c0-46.9248 9.2416-92.4928 27.648-135.296a344.7552 344.7552 0 0 1 75.52-110.464 351.488 351.488 0 0 1 111.9488-74.496 351.488 351.488 0 0 1 136.9088-27.3152 352.6656 352.6656 0 0 1 248.9344 101.8112c10.1376 10.112 19.712 20.6336 28.4416 31.744l59.52-45.9776A428.7232 428.7232 0 0 0 515.7376 98.816c-238.3872 0.0768-429.824 191.1552-427.4432 426.496 2.3808 231.1936 192.9216 417.8432 427.648 417.8432 184.576 0 341.76-115.456 401.664-277.1712a7.9872 7.9872 0 0 0-4.864-10.1888z" fill="#e6e6e6" p-id="69440"></path></svg>