<?xml version="1.0" standalone="no"?><!DOCTYPE svg PUBLIC "-//W3C//DTD SVG 1.1//EN" "http://www.w3.org/Graphics/SVG/1.1/DTD/svg11.dtd"><svg t="1607500257615" class="icon" viewBox="0 0 1024 1024" version="1.1" xmlns="http://www.w3.org/2000/svg" p-id="70950" xmlns:xlink="http://www.w3.org/1999/xlink" width="200" height="200"><defs><style type="text/css"></style></defs><path d="M704 128V64h-384V128H127.488l-1.024 832.512 321.024-1.024v-64h-256V192h128.512V256h384V192h128v384H896V128h-192zM640 192H384V128h256v64z" p-id="70951"></path><path d="M320 510.976l256 0.512v64.512h-256zM320 384h384v64.512h-384zM320 640l128-0.512v64.512l-128 1.024V640zM698.88 635.904c69.632 0 125.952 55.808 125.952 124.928s-56.32 124.928-125.952 124.928-125.952-55.808-125.952-124.928 56.32-124.928 125.952-124.928m0-55.808c-100.352 0-181.76 80.896-181.76 180.224s81.408 180.224 181.76 180.224 181.76-80.896 181.76-180.224c0-99.328-81.408-180.224-181.76-180.224z" p-id="70952"></path><path d="M723.456 683.008h-48.128v95.744h48.128v-95.744zM723.456 795.648h-48.128v47.616h48.128v-47.616z" p-id="70953"></path></svg>