<?xml version="1.0" standalone="no"?><!DOCTYPE svg PUBLIC "-//W3C//DTD SVG 1.1//EN" "http://www.w3.org/Graphics/SVG/1.1/DTD/svg11.dtd"><svg t="1527679027400" class="icon" style="" viewBox="0 0 1024 1024" version="1.1" xmlns="http://www.w3.org/2000/svg" p-id="2094" xmlns:xlink="http://www.w3.org/1999/xlink" width="200" height="200"><defs><style type="text/css"></style></defs><path d="M858.186172 0 163.700063 0C111.715131 0 69.566191 64.848869 69.566191 144.850843l0 734.287908c0 80.006434 42.148941 144.859762 94.133873 144.859762l694.487595 0c51.987905 0 94.133873-64.853328 94.133873-144.859762L952.321531 144.850843C952.324504 64.848869 910.175563 0 858.186172 0L858.186172 0zM163.700063 83.588833l694.487595 0c21.990881 0 39.809232 27.423939 39.809232 61.26201l0 64.126443L123.889345 208.977286l0-64.126443C123.889345 111.012773 141.713642 83.588833 163.700063 83.588833L163.700063 83.588833zM858.186172 940.406707 163.700063 940.406707c-21.986421 0-39.809232-27.432858-39.809232-61.266469L123.890831 250.77096l774.107546 0 0 628.363332C897.996891 912.972362 880.177053 940.406707 858.186172 940.406707L858.186172 940.406707z" p-id="2095" fill="#1296db"></path><path d="M600.448114 331.951707c3.569022-10.516796 8.914378-15.769992 16.050935-15.769992 4.456446 0 8.762758 2.289168 12.924882 6.864532 7.726686 6.860073 11.436923 15.31959 11.147061 25.380039 0 5.033197-1.040531 10.290852-3.121593 15.77891l-77.571591 185.913172 63.748879 0c10.405311 0 15.604993 7.777226 15.604993 23.316815 0 16.461201-5.202655 24.688829-15.604993 24.688829l-83.367349 0-16.939846 41.854619 0 32.935781 99.865712 0c10.400851 0 15.604993 7.542364 15.604993 22.621145 0 16.013773-5.198196 24.016943-15.604993 24.016943l-99.865712 0 0 124.163599c0 19.214149-6.837776 28.824197-20.508867 28.824197-13.680011 0-20.513327-9.610048-20.513327-28.824197l0-124.163599-100.307195 0c-10.411257 0-15.604993-8.00317-15.604993-24.016943 0-15.535129 5.193736-23.077493 15.604993-22.621145l100.307195 0 0-33.631451-17.391734-41.15895-82.473979 0c-10.406797 0-15.604993-7.979387-15.604993-24.008025 0-16.000395 5.202655-24.003565 15.604993-24.003565l63.30591 0-78.013073-185.913172c-2.081062-4.567931-3.121593-9.610048-3.121593-15.098106 0-11.423545 3.858884-20.125357 11.59003-26.069763 4.157665-3.650778 8.31533-5.709543 12.481913-6.183727 6.533049 0 11.73719 5.046576 15.609452 15.093646l98.5264 250.397855L600.448114 331.951707 600.448114 331.951707z" p-id="2096" fill="#1296db"></path></svg>