<?xml version="1.0" standalone="no"?><!DOCTYPE svg PUBLIC "-//W3C//DTD SVG 1.1//EN" "http://www.w3.org/Graphics/SVG/1.1/DTD/svg11.dtd"><svg t="1537259001287" class="icon" style="" viewBox="0 0 1445 1024" version="1.1" xmlns="http://www.w3.org/2000/svg" p-id="5122" xmlns:xlink="http://www.w3.org/1999/xlink" width="282.2265625" height="200"><defs><style type="text/css"></style></defs><path d="M1237.052235 496.158118a272.986353 272.986353 0 0 1 154.925177 246.844235c0 145.347765-113.724235 265.637647-260.397177 273.950118l-740.47247 0.722823-19.034353-0.843294a354.785882 354.785882 0 0 1-338.763294-354.665412c0-194.861176 158.539294-354.243765 353.460706-355.388235l5.421176-0.060235 2.168471-5.059765A435.561412 435.561412 0 0 1 796.912941 33.792a436.826353 436.826353 0 0 1 436.344471 436.344471 1276.988235 1276.988235 0 0 0-1.084236 23.67247l4.818824 2.349177z m-107.038117 466.582588a220.340706 220.340706 0 0 0 207.751529-219.738353c0-84.931765-47.585882-160.828235-124.446118-198.113882l-36.864-17.950118 0.783059-17.829647 1.505883-31.744 0.361411-7.228235A382.614588 382.614588 0 0 0 796.912941 87.943529a381.349647 381.349647 0 0 0-352.617412 234.616471l-15.962353 38.068706-17.889882 0.12047-23.431529 0.180706a302.019765 302.019765 0 0 0-299.550118 301.176471 300.574118 300.574118 0 0 0 287.081412 300.574118l17.106823 0.722823 738.304-0.722823z" p-id="5123" fill="#cdcdcd"></path><path d="M727.762824 326.656L476.882824 577.536l53.910588 53.850353 158.84047-158.840471v348.822589h76.257883v-348.762353l158.84047 158.780235 53.910589-53.850353z" p-id="5124" fill="#cdcdcd"></path></svg>